<?xml version="1.0" encoding="UTF-8"?>
<!-- Generated by jsxcad -->
<!DOCTYPE svg PUBLIC "-//W3C//DTD SVG 1.1 Tiny//EN" "http://www.w3.org/Graphics/SVG/1.1/DTD/svg11-tiny.dtd">
<svg baseProfile="tiny" height="33.61480717953888mm" width="39.31449985504153mm" viewBox="0 0 39.31449985504153 33.61480717953888" version="1.1" stroke="black" stroke-width=".1" fill="none" xmlns="http://www.w3.org/2000/svg">
<path fill="#b0e0e6" stroke="#b0e0e6" d="M30.44587 34.83209 L30.74272 35.17467 L30.79747 35.23785 L29.94185 36.06411 L28.13596 37.37617 L26.16504 38.42413 L24.06745 39.18759 L21.88402 39.65169 L19.65725 39.8074 L17.43048 39.65169 L15.24705 39.18759 L13.14946 38.42413 L11.17854 37.37617 L9.37265 36.06411 L7.76693 34.51349 L6.39265 32.75449 L5.27655 30.82134 L4.44035 28.75168 L4.21236 27.83727 L4.30696 27.83727 L5.02718 27.83727 L5.2468 27.83727 L5.36125 28.20829 L5.69414 29.28752 L6.66687 31.3074 L7.7512 32.89782 L7.92978 33.15975 L9.45466 34.80318 L11.20745 36.20098 L12.74718 37.08995 L13.14899 37.32194 L13.79577 37.57578 L14.29096 37.77013 L15.04962 38.06788 L15.23592 38.141 L15.35422 38.168 L16.22523 38.3668 L16.62089 38.45711 L17.42162 38.63987 L19.65725 38.8074 L21.89288 38.63987 L24.07858 38.141 L26.16551 37.32194 L28.10705 36.20098 L28.31884 36.03209 L29.85984 34.80318 L30.14992 34.49055 L30.21495 34.56559 z"/>
<path fill="#b0e0e6" stroke="#b0e0e6" d="M17.430479833071907 39.65169238717881 L17.430479833071907 39.65169238717881 L19.657249749847217 39.80740357734527 L19.657249749847217 39.80740357734527 z"/>
<path fill="#b0e0e6" stroke="#b0e0e6" d="M21.884020166222726 39.651692377091635 L21.884020166222726 39.651692377091635 L19.657250249447415 39.80740356725809 L19.657250249447415 39.80740356725809 z"/>
<path fill="#b0e0e6" stroke="#b0e0e6" d="M29.85984115397112 34.80318144703447 L29.85984115397112 34.80318144703447 L28.31883925790177 36.03208906943796 L28.107052590468555 36.200983248345835 L28.107052590468555 36.200983248345835 L28.31883925790177 36.03208906943796 z"/>
<path fill="#b0e0e6" stroke="#b0e0e6" d="M26.165039705129004 38.42412918984898 L26.165039705129004 38.42412918984898 L24.067449927217847 39.187589800032775 L24.067449927217847 39.187589800032775 z"/>
<path fill="#b0e0e6" stroke="#b0e0e6" d="M24.067450025928323 39.18759012198322 L24.067450025928323 39.18759012198322 L21.884020474571084 39.65169223268222 L21.884020474571084 39.65169223268222 z"/>
<path fill="#b0e0e6" stroke="#b0e0e6" d="M29.94185290852105 36.06411400323661 L29.94185290852105 36.06411400323661 L28.135960824148565 37.376171134343416 L28.135960824148565 37.376171134343416 z"/>
<path fill="#b0e0e6" stroke="#b0e0e6" d="M28.13596086420856 37.37617162534052 L28.13596086420856 37.37617162534052 L26.16503935557468 38.424128788011785 L26.16503935557468 38.424128788011785 z"/>
<path fill="#b0e0e6" stroke="#b0e0e6" d="M7.766930112042504 34.51348991246282 L7.766930112042504 34.51348991246282 L6.39264952379478 32.75449037205216 L6.39264952379478 32.75449037205216 z"/>
<path fill="#b0e0e6" stroke="#b0e0e6" d="M6.3926494132124825 32.75449033878213 L6.3926494132124825 32.75449033878213 L5.276545412546444 30.82134264856911 L5.276545412546444 30.82134264856911 z"/>
<path fill="#b0e0e6" stroke="#b0e0e6" d="M9.372646623629274 36.064113496333604 L9.372646623629274 36.064113496333604 L7.766929649911745 34.51349036252693 L7.766929649911745 34.51349036252693 z"/>
<path fill="#b0e0e6" stroke="#b0e0e6" d="M7.929777928205281 33.15975141252559 L7.929777928205281 33.15975141252559 L7.751197359378469 32.897821800345106 L6.666867432621396 31.30740175040893 L6.666867432621396 31.30740175040893 L7.751197359378469 32.897821800345106 z"/>
<path fill="#b0e0e6" stroke="#b0e0e6" d="M11.178539125769527 37.37617120327526 L11.178539125769527 37.37617120327526 L9.37264704139704 36.06411407216845 L9.37264704139704 36.06411407216845 z"/>
<path fill="#b0e0e6" stroke="#b0e0e6" d="M15.247050055825216 39.18758984662155 L15.247050055825216 39.18758984662155 L13.149460277914061 38.42412923643775 L13.149460277914061 38.42412923643775 z"/>
<path fill="#b0e0e6" stroke="#b0e0e6" d="M13.149460612475975 38.424128848099784 L13.149460612475975 38.424128848099784 L11.178539103842096 37.37617168542852 L11.178539103842096 37.37617168542852 z"/>
<path fill="#b0e0e6" stroke="#b0e0e6" d="M15.24704996780552 39.18759015146317 L15.24704996780552 39.18759015146317 L17.430479519162756 39.65169226216218 L17.430479519162756 39.65169226216218 z"/>
<path fill="#b0e0e6" stroke="#b0e0e6" d="M30.44587 34.83209 L30.21495 34.56559 L30.14992 34.49055 L29.85984 34.80318 L28.31884 36.03209 L28.10705 36.20098 L26.16551 37.32194 L24.07858 38.141 L21.89288 38.63987 L19.65725 38.8074 L17.42162 38.63987 L16.62089 38.45711 L16.22523 38.3668 L15.35422 38.168 L15.23592 38.141 L15.04962 38.06788 L14.29096 37.77013 L13.79577 37.57578 L13.14899 37.32194 L12.74718 37.08995 L11.20745 36.20098 L9.45466 34.80318 L7.92978 33.15975 L7.7512 32.89782 L6.66687 31.3074 L5.69414 29.28752 L5.36125 28.20829 L5.2468 27.83727 L5.02718 27.83727 L4.30696 27.83727 L4.21236 27.83727 L4.44035 28.75168 L5.27655 30.82134 L6.39265 32.75449 L7.76693 34.51349 L9.37265 36.06411 L11.17854 37.37617 L13.14946 38.42413 L15.24705 39.18759 L17.43048 39.65169 L19.65725 39.8074 L21.88402 39.65169 L24.06745 39.18759 L26.16504 38.42413 L28.13596 37.37617 L29.94185 36.06411 L30.79747 35.23785 L30.74272 35.17467 z"/>
<path fill="#b0e0e6" stroke="#b0e0e6" d="M4.44034746610401 28.751681023760753 L4.44034746610401 28.751681023760753 L5.276545042235605 30.82134200306746 L5.276545042235605 30.82134200306746 z"/>
<path fill="#b0e0e6" stroke="#b0e0e6" d="M30.797471918776818 35.237851986951206 L30.797471918776818 35.237851986951206 L29.941853306420963 36.064113423898526 L29.941853306420963 36.064113423898526 L30.797471918776818 35.237851986951206 z"/>
<path fill="#b0e0e6" stroke="#b0e0e6" d="M30.74272002337135 35.1746699797486 L30.44587158501885 34.83208862657332 L30.214949546436593 34.565590393014936 L30.149923812149346 34.49054669675372 L30.149923812149346 34.49054669675372 L30.149923812149346 34.49054669675372 L30.214949546436593 34.565590393014936 L30.44587158501885 34.83208862657332 L30.74272002337135 35.1746699797486 L30.79746761465773 35.23785206691088 L30.79746761465773 35.23785206691088 L30.79746761465773 35.23785206691088 z"/>
<path fill="#b0e0e6" stroke="#b0e0e6" d="M4.2123587641855815 27.837270308122694 L4.2123587641855815 27.837270308122694 L4.44034658867549 28.751680850537497 L4.44034658867549 28.751680850537497 L4.2123587641855815 27.837270308122694 L4.2123587641855815 27.837270308122694 z"/>
<path fill="#b0e0e6" stroke="#b0e0e6" d="M15.235921670645698 38.14099574326596 L15.235921670645698 38.14099574326596 L15.049620783938613 38.067878002557826 L14.290961543604935 37.77012606696042 L13.795770807374598 37.575777942843935 L13.148991674935044 37.3219357323369 L13.148991674935044 37.3219357323369 L13.795770807374598 37.575777942843935 L14.290961543604935 37.77012606696042 L15.049620783938613 38.067878002557826 z"/>
<path fill="#b0e0e6" stroke="#b0e0e6" d="M13.14899245033525 37.321935755896334 L13.14899245033525 37.321935755896334 L12.747180368920375 37.089949361011385 L11.207447702578149 36.20098397924997 L11.207447702578149 36.20098397924997 L12.747180368920375 37.089949361011385 z"/>
<path fill="#b0e0e6" stroke="#b0e0e6" d="M11.207447353180376 36.200983319007854 L11.207447353180376 36.200983319007854 L9.454658789677808 34.80318151769649 L9.454658789677808 34.80318151769649 z"/>
<path fill="#b0e0e6" stroke="#b0e0e6" d="M9.454658620203222 34.80318128026474 L9.454658620203222 34.80318128026474 L7.929778241747561 33.15975163142039 L7.929778241747561 33.15975163142039 z"/>
<path fill="#b0e0e6" stroke="#b0e0e6" d="M24.078578310006087 38.140995693967554 L24.078578310006087 38.140995693967554 L26.165508305716745 37.32193568303848 L26.165508305716745 37.32193568303848 z"/>
<path fill="#b0e0e6" stroke="#b0e0e6" d="M21.89287971693291 38.63986622273391 L21.89287971693291 38.63986622273391 L19.65725026710904 38.8074035643208 L19.65725026710904 38.8074035643208 z"/>
<path fill="#b0e0e6" stroke="#b0e0e6" d="M15.235920982460268 38.14099569555701 L15.235920982460268 38.14099569555701 L15.354220725972239 38.16799681930535 L16.225230249568902 38.366798906566345 L16.620890955986763 38.4571058115451 L17.42162068330572 38.63986700623974 L17.42162068330572 38.63986700623974 L16.620890955986763 38.4571058115451 L16.225230249568902 38.366798906566345 L15.354220725972239 38.16799681930535 z"/>
<path fill="#b0e0e6" stroke="#b0e0e6" d="M17.421620282257553 38.63986623353638 L17.421620282257553 38.63986623353638 L19.65724973208143 38.807403575123274 L19.65724973208143 38.807403575123274 z"/>
<path fill="#b0e0e6" stroke="#b0e0e6" d="M26.165507513425112 37.321935693127465 L26.165507513425112 37.321935693127465 L28.10705226118221 36.2009839164811 L28.10705226118221 36.2009839164811 z"/>
<path fill="#b0e0e6" stroke="#b0e0e6" d="M24.078579010362038 38.14099566410947 L24.078579010362038 38.14099566410947 L21.89287930951659 38.6398669747922 L21.89287930951659 38.6398669747922 z"/>
<path fill="#b0e0e6" stroke="#b0e0e6" d="M5.2468011343883605 27.837269650087563 L5.2468011343883605 27.837269650087563 L5.2468011343883605 27.837269650087563 L5.2468011343883605 27.837269650087563 L5.361246114330799 28.208291198570098 L5.694143725093207 29.287518850961032 L5.694143725093207 29.287518850961032 L5.361246114330799 28.208291198570098 L5.2468011343883605 27.837269650087563 z"/>
<path fill="#b0e0e6" stroke="#b0e0e6" d="M6.666867530618705 31.30740118919107 L6.666867530618705 31.30740118919107 L5.694143451576527 29.28751833780875 L5.694143451576527 29.28751833780875 z"/>
<path fill="#b0e0e6" stroke="#b0e0e6" d="M30.149920412580585 34.49055038281896 L30.149920412580585 34.49055038281896 L29.859841301901184 34.80318120798817 L29.859841301901184 34.80318120798817 L30.149920412580585 34.49055038281896 z"/>
<path fill="#b0e0e6" stroke="#b0e0e6" d="M4.30696 27.837274099870758 L5.02718 27.837274099870758 L5.2468 27.837274099870758 L5.2468 27.837274099870758 L5.2468 27.837274099870758 L5.2468 27.837274099870758 L5.2468 27.837274099870758 L5.02718 27.837274099870758 L4.30696 27.837274099870758 L4.21236 27.837274099870758 L4.21236 27.837274099870758 L4.21236 27.837274099870758 L4.21236 27.837274099870758 z"/>
<path fill="#b0e0e6" stroke="#b0e0e6" d="M35.009795476766485 28.207648872232852 L35.009795476766485 28.207648872232852 L35.009795476766485 28.207648872232852 L35.009795476766485 28.207648872232852 L35.066375403172636 27.98071885388387 L35.066375403172636 27.98071885388387 L35.066375403172636 27.98071885388387 L35.066375403172636 27.98071885388387 L35.009795476766485 28.207648872232852 z"/>
<path fill="#b0e0e6" stroke="#b0e0e6" d="M34.11005978557431 27.699920730267063 L34.11005978557431 27.699920730267063 L34.53161027003648 27.823699080339896 L34.81700080052591 27.907497273658212 L34.95851051087892 27.949048260105606 L35.06637957030283 27.980721463414657 L35.06637957030283 27.980721463414657 L35.06637957030283 27.980721463414657 L35.06637957030283 27.980721463414657 L34.95851051087892 27.949048260105606 L34.81700080052591 27.907497273658212 L34.53161027003648 27.823699080339896 L34.11005978557431 27.699920730267063 L34.11005978557431 27.699920730267063 z"/>
<path fill="#b0e0e6" stroke="#b0e0e6" d="M34.16645 27.77753 L34.34053 27.77753 L34.5687 27.92417 L34.82948 28.09176 L34.9363 28.16041 L35.0098 28.20765 L35.06638 27.98072 L34.95851 27.94905 L34.817 27.9075 L34.53161 27.8237 L34.11006 27.69992 L34.08613 27.77753 z"/>
<path fill="#b0e0e6" stroke="#b0e0e6" d="M34.34053 27.77753 L34.16645 27.77753 L34.08613 27.77753 L34.11006 27.69992 L34.53161 27.8237 L34.817 27.9075 L34.95851 27.94905 L35.06638 27.98072 L35.0098 28.20765 L34.9363 28.16041 L34.82948 28.09176 L34.5687 27.92417 z"/>
<path fill="#b0e0e6" stroke="#b0e0e6" d="M34.34052763475829 27.777533680388025 L34.34052763475829 27.777533680388025 L34.56869947605891 27.92417081526826 L34.82947805453271 28.091763027206262 L34.936298489386836 28.160412350560023 L35.00980049937414 28.207649222958647 L35.00980049937414 28.207649222958647 L35.00980049937414 28.207649222958647 L35.00980049937414 28.207649222958647 L35.00980049937414 28.207649222958647 L34.936298489386836 28.160412350560023 L34.82947805453271 28.091763027206262 L34.56869947605891 27.92417081526826 z"/>
<path fill="#b0e0e6" stroke="#b0e0e6" d="M34.08612631143894 27.777528862229705 L34.08612631143894 27.777528862229705 L34.08612631143894 27.777528862229705 L34.110064997230474 27.69992154144131 L34.110064997230474 27.69992154144131 L34.110064997230474 27.69992154144131 L34.110064997230474 27.69992154144131 L34.08612631143894 27.777528862229705 L34.08612631143894 27.777528862229705 L34.08612631143894 27.777528862229705 z"/>
<path fill="#b0e0e6" stroke="#b0e0e6" d="M34.34053 27.77753307966812 L34.34053 27.77753307966812 L34.16645 27.77753307966812 L34.08613 27.77753307966812 L34.08613 27.77753307966812 L34.08613 27.77753307966812 L34.08613 27.77753307966812 L34.08613 27.77753307966812 L34.08613 27.77753307966812 L34.16645 27.77753307966812 z"/>
<path fill="#b0e0e6" stroke="#b0e0e6" d="M30.70408 12.82244 L30.80219 12.72902 L30.99478 12.54562 L32.26542 13.95682 L33.51366 15.8074 L34.49219 17.8137 L35.13028 19.77753 L34.98183 19.77753 L34.61714 19.77753 L34.56556 19.77753 L34.36278 19.77753 L34.0677 19.77753 L33.62036 18.32729 L32.64763 16.3074 L31.38472 14.45506 L30.2612 13.24419 L30.43027 13.08318 L30.58926 12.93179 z"/>
<path fill="#b0e0e6" stroke="#b0e0e6" d="M34.4921921103302 17.81369897072284 L34.4921921103302 17.81369897072284 L33.51365546687913 15.807402210951523 L33.51365546687913 15.807402210951523 z"/>
<path fill="#b0e0e6" stroke="#b0e0e6" d="M32.265421815339906 13.956818775538647 L32.265421815339906 13.956818775538647 L33.51365568239 15.807402912262626 L33.51365568239 15.807402912262626 z"/>
<path fill="#b0e0e6" stroke="#b0e0e6" d="M30.80219 12.72902 L30.70408 12.82244 L30.58926 12.93179 L30.43027 13.08318 L30.2612 13.24419 L31.38472 14.45506 L32.64763 16.3074 L33.62036 18.32729 L34.0677 19.77753 L34.36278 19.77753 L34.61714 19.77753 L34.98183 19.77753 L35.13028 19.77753 L34.49219 17.8137 L33.51366 15.8074 L32.26542 13.95682 L30.99478 12.54562 z"/>
<path fill="#b0e0e6" stroke="#b0e0e6" d="M35.13027938429521 19.77753020005459 L35.13027938429521 19.77753020005459 L35.13027938429521 19.77753020005459 L34.492192115051516 17.813699312778173 L34.492192115051516 17.813699312778173 L35.13027938429521 19.77753020005459 L35.13027938429521 19.77753020005459 z"/>
<path fill="#b0e0e6" stroke="#b0e0e6" d="M34.98183 19.77753307966812 L35.13028 19.77753307966812 L35.13028 19.77753307966812 L35.13028 19.77753307966812 L35.13028 19.77753307966812 L35.13028 19.77753307966812 L34.98183 19.77753307966812 L34.61714 19.77753307966812 L34.36278 19.77753307966812 L34.0677 19.77753307966812 L34.0677 19.77753307966812 L34.0677 19.77753307966812 L34.0677 19.77753307966812 L34.36278 19.77753307966812 L34.56556 19.77753307966812 L34.61714 19.77753307966812 z"/>
<path fill="#b0e0e6" stroke="#b0e0e6" d="M30.994775667071554 12.545623901387517 L30.994775667071554 12.545623901387517 L30.994775667071554 12.545623901387517 L30.994775667071554 12.545623901387517 L32.26542151360648 13.95681863714217 L32.26542151360648 13.95681863714217 z"/>
<path fill="#b0e0e6" stroke="#b0e0e6" d="M33.62035753331664 18.327291187891806 L33.62035753331664 18.327291187891806 L32.647629545117645 16.30740021905974 L32.647629545117645 16.30740021905974 z"/>
<path fill="#b0e0e6" stroke="#b0e0e6" d="M31.384723285582403 14.455057759928058 L31.384723285582403 14.455057759928058 L32.6476291267977 16.307400595339185 L32.6476291267977 16.307400595339185 z"/>
<path fill="#b0e0e6" stroke="#b0e0e6" d="M30.26120118206726 13.244188903201495 L30.26120118206726 13.244188903201495 L30.26120118206726 13.244188903201495 L31.384723086644154 14.45505713601181 L31.384723086644154 14.45505713601181 L30.26120118206726 13.244188903201495 z"/>
<path fill="#b0e0e6" stroke="#b0e0e6" d="M30.99477991314013 12.545619908787028 L30.99477991314013 12.545619908787028 L30.80218927315925 12.729019236732618 L30.70408313808593 12.822443295355468 L30.589258274384342 12.931788187902718 L30.43027439966085 13.083184620155965 L30.261200005513086 13.244190005789383 L30.261200005513086 13.244190005789383 L30.261200005513086 13.244190005789383 L30.261200005513086 13.244190005789383 L30.43027439966085 13.083184620155965 L30.589258274384342 12.931788187902718 L30.70408313808593 12.822443295355468 L30.80218927315925 12.729019236732618 L30.99477991314013 12.545619908787028 L30.99477991314013 12.545619908787028 z"/>
<path fill="#b0e0e6" stroke="#b0e0e6" d="M34.06769671105828 19.777531014504063 L34.06769671105828 19.777531014504063 L34.06769671105828 19.777531014504063 L33.6203569369535 18.32729094482462 L33.6203569369535 18.32729094482462 L34.06769671105828 19.777531014504063 z"/>
<path fill="#b0e0e6" stroke="#b0e0e6" d="M23.89953 8.41961 L23.80336 8.58594 L23.64174 8.86546 L23.38193 9.31481 L21.89288 8.97494 L19.68932 8.80981 L19.65725 8.8074 L18.43048 8.89934 L17.42162 8.97494 L15.82056 9.34037 L15.78727 9.20234 L15.70884 8.87725 L15.61226 8.4769 L15.58657 8.37041 L16.33066 8.15704 L18.54115 7.84638 L20.77335 7.84638 L22.98384 8.15704 z"/>
<path fill="#b0e0e6" stroke="#b0e0e6" d="M22.983839722683427 8.15704197320969 L22.983839722683427 8.15704197320969 L20.773350294130005 7.846377907156521 L20.773350294130005 7.846377907156521 z"/>
<path fill="#b0e0e6" stroke="#b0e0e6" d="M20.77335 7.84637835173233 L20.77335 7.84637835173233 L18.54115 7.84637835173233 L18.54115 7.84637835173233 z"/>
<path fill="#b0e0e6" stroke="#b0e0e6" d="M16.330660274508848 8.157041953231703 L18.54114970306227 7.846377887178535 L18.54114970306227 7.846377887178535 L16.330660274508848 8.157041953231703 z"/>
<path fill="#b0e0e6" stroke="#b0e0e6" d="M23.38193 9.31481 L23.64174 8.86546 L23.80336 8.58594 L23.89953 8.41961 L22.98384 8.15704 L20.77335 7.84638 L18.54115 7.84638 L16.33066 8.15704 L15.58657 8.37041 L15.61226 8.4769 L15.70884 8.87725 L15.78727 9.20234 L15.82056 9.34037 L17.42162 8.97494 L18.43048 8.89934 L19.65725 8.8074 L19.68932 8.80981 L21.89288 8.97494 z"/>
<path fill="#b0e0e6" stroke="#b0e0e6" d="M23.89952933264323 8.419612327348124 L23.89952933264323 8.419612327348124 L23.89952933264323 8.419612327348124 L23.89952933264323 8.419612327348124 L22.983839346347448 8.157042279555872 L22.983839346347448 8.157042279555872 z"/>
<path fill="#b0e0e6" stroke="#b0e0e6" d="M23.803360857874925 8.58594049602768 L23.899533000518257 8.419611734915044 L23.899533000518257 8.419611734915044 L23.899533000518257 8.419611734915044 L23.899533000518257 8.419611734915044 L23.803360857874925 8.58594049602768 L23.64174093474105 8.865460540472071 L23.38192608256669 9.31480773491997 L23.38192608256669 9.31480773491997 L23.38192608256669 9.31480773491997 L23.38192608256669 9.31480773491997 L23.64174093474105 8.865460540472071 z"/>
<path fill="#b0e0e6" stroke="#b0e0e6" d="M15.586569188479865 8.370407169894792 L15.586569188479865 8.370407169894792 L15.586569188479865 8.370407169894792 L15.586569188479865 8.370407169894792 L16.330660642639177 8.157042241147709 L16.330660642639177 8.157042241147709 z"/>
<path fill="#b0e0e6" stroke="#b0e0e6" d="M15.820563385130292 9.340369183369013 L15.820563385130292 9.340369183369013 L15.820563385130292 9.340369183369013 L15.787265404558175 9.202341108607309 L15.708840206660364 8.87724995014512 L15.612259555825261 8.476900107152996 L15.586569824819243 8.370410042260715 L15.586569824819243 8.370410042260715 L15.586569824819243 8.370410042260715 L15.586569824819243 8.370410042260715 L15.612259555825261 8.476900107152996 L15.708840206660364 8.87724995014512 L15.787265404558175 9.202341108607309 L15.820563385130292 9.340369183369013 z"/>
<path fill="#b0e0e6" stroke="#b0e0e6" d="M19.65724973208143 8.807403575123278 L19.65724973208143 8.807403575123278 L19.689320230230305 8.809806927791428 L21.892879927116965 8.97494097255609 L21.892879927116965 8.97494097255609 L19.689320230230305 8.809806927791428 z"/>
<path fill="#b0e0e6" stroke="#b0e0e6" d="M17.4216200720735 8.974940961753616 L17.4216200720735 8.974940961753616 L18.43047980087194 8.89933734282192 L19.65725026710904 8.807403564320804 L19.65725026710904 8.807403564320804 L18.43047980087194 8.89933734282192 z"/>
<path fill="#b0e0e6" stroke="#b0e0e6" d="M23.381930857581157 9.314806242688567 L23.381930857581157 9.314806242688567 L23.381930857581157 9.314806242688567 L21.892879921392275 8.974940344403203 L21.892879921392275 8.974940344403203 L23.381930857581157 9.314806242688567 z"/>
<path fill="#b0e0e6" stroke="#b0e0e6" d="M15.820560335349366 9.340371469262704 L15.820560335349366 9.340371469262704 L15.820560335349366 9.340371469262704 L17.42162007143003 8.974940312955663 L17.42162007143003 8.974940312955663 L15.820560335349366 9.340371469262704 z"/>
<path fill="#b0e0e6" stroke="#b0e0e6" d="M8.51955 12.5368 L8.44472 12.4068 L7.04908 13.95682 L5.80084 15.8074 L4.82231 17.8137 L4.23233 19.62945 L4.36023 19.667 L5.05242 19.87025 L5.20444 19.91488 L5.40838 19.25372 L5.69414 18.32729 L6.66687 16.3074 L7.92978 14.45506 L8.58921 13.74436 L8.97521 13.32835 L8.90241 13.20188 L8.82602 13.06919 L8.70007 12.85039 L8.60775 12.69002 z"/>
<path fill="#b0e0e6" stroke="#b0e0e6" d="M5.800844416018975 15.807402153837094 L4.822307772567906 17.81369891360841 L4.822307772567906 17.81369891360841 L5.800844416018975 15.807402153837094 z"/>
<path fill="#b0e0e6" stroke="#b0e0e6" d="M8.444721010362784 12.406800909735024 L8.444721010362784 12.406800909735024 L8.444721010362784 12.406800909735024 L7.04907840633816 13.956818565059983 L7.04907840633816 13.956818565059983 L8.444721010362784 12.406800909735024 L8.444721010362784 12.406800909735024 z"/>
<path fill="#b0e0e6" stroke="#b0e0e6" d="M8.975206665543675 13.328351919454597 L8.902405538676943 13.20188256812692 L8.826021550337423 13.069189107559971 L8.700071124157969 12.850389352886955 L8.607754294422802 12.690017527947948 L8.519554342698942 12.536797500158153 L8.444721700215513 12.406799021283781 L8.444721700215513 12.406799021283781 L8.444721700215513 12.406799021283781 L8.444721700215513 12.406799021283781 L8.444721700215513 12.406799021283781 L8.519554342698942 12.536797500158153 L8.607754294422802 12.690017527947948 L8.700071124157969 12.850389352886955 L8.826021550337423 13.069189107559971 L8.902405538676943 13.20188256812692 L8.975206665543675 13.328351919454597 L8.975206665543675 13.328351919454597 L8.975206665543675 13.328351919454597 L8.975206665543675 13.328351919454597 L8.975206665543675 13.328351919454597 z"/>
<path fill="#b0e0e6" stroke="#b0e0e6" d="M7.049078085029614 13.95681870833709 L7.049078085029614 13.95681870833709 L5.800844217979517 15.807402845061068 L5.800844217979517 15.807402845061068 z"/>
<path fill="#b0e0e6" stroke="#b0e0e6" d="M8.90241 13.20188 L8.97521 13.32835 L8.58921 13.74436 L7.92978 14.45506 L6.66687 16.3074 L5.69414 18.32729 L5.40838 19.25372 L5.20444 19.91488 L5.05242 19.87025 L4.36023 19.667 L4.32557 19.65683 L4.23233 19.62945 L4.82231 17.8137 L5.80084 15.8074 L7.04908 13.95682 L8.44472 12.4068 L8.51955 12.5368 L8.60775 12.69002 L8.70007 12.85039 L8.82602 13.06919 z"/>
<path fill="#b0e0e6" stroke="#b0e0e6" d="M4.232334196360301 19.62945136347997 L4.232334196360301 19.62945136347997 L4.232334196360301 19.62945136347997 L4.232334196360301 19.62945136347997 L4.8223077538323125 17.813699270175952 L4.8223077538323125 17.813699270175952 z"/>
<path fill="#b0e0e6" stroke="#b0e0e6" d="M4.232330196873609 19.62944932950984 L4.232330196873609 19.62944932950984 L4.325570811773132 19.6568272353537 L4.3602288949495565 19.667003763457416 L5.052420177345713 19.870249396015765 L5.204438262144519 19.914885918594155 L5.204438262144519 19.914885918594155 L5.204438262144519 19.914885918594155 L5.204438262144519 19.914885918594155 L5.204438262144519 19.914885918594155 L5.204438262144519 19.914885918594155 L5.052420177345713 19.870249396015765 L4.3602288949495565 19.667003763457416 L4.232330196873609 19.62944932950984 L4.232330196873609 19.62944932950984 z"/>
<path fill="#b0e0e6" stroke="#b0e0e6" d="M5.204436892594097 19.914879041492313 L5.204436892594097 19.914879041492313 L5.204436892594097 19.914879041492313 L5.204436892594097 19.914879041492313 L5.408377651451221 19.253719275568713 L5.694142930682109 18.32729090399562 L5.694142930682109 18.32729090399562 L5.408377651451221 19.253719275568713 L5.204436892594097 19.914879041492313 L5.204436892594097 19.914879041492313 z"/>
<path fill="#b0e0e6" stroke="#b0e0e6" d="M6.666870774243414 16.307400527870172 L6.666870774243414 16.307400527870172 L7.929776615458718 14.455057692459045 L7.929776615458718 14.455057692459045 z"/>
<path fill="#b0e0e6" stroke="#b0e0e6" d="M5.694142349014043 18.32729113122527 L5.694142349014043 18.32729113122527 L6.666870337213044 16.307400162393204 L6.666870337213044 16.307400162393204 z"/>
<path fill="#b0e0e6" stroke="#b0e0e6" d="M8.975209226785148 13.328349282561224 L8.975209226785148 13.328349282561224 L8.589208689957237 13.74435878445755 L7.929776835460256 14.45505706373524 L7.929776835460256 14.45505706373524 L8.589208689957237 13.74435878445755 L8.975209226785148 13.328349282561224 L8.975209226785148 13.328349282561224 L8.975209226785148 13.328349282561224 L8.975209226785148 13.328349282561224 z"/>
<path fill="#b0e0e6" stroke="#b0e0e6" d="M1.88656 20.27414 L3.46797 19.80979 L3.52237 19.79382 L3.69623 19.74277 L3.75996 19.72406 L4.15725 19.6074 L4.32557 19.65683 L5.99497 20.14701 L6.42794 20.27414 L7.9777 22.06266 L7.99095 22.1548 L8.3145 24.40513 L7.3314 26.55782 L7.11797 26.69498 L6.87751 26.84951 L6.6905 26.9697 L5.34053 27.83727 L2.97397 27.83727 L0.9831 26.55782 L0 24.40513 L0.3368 22.06266 z"/>
<path fill="#b0e0e6" stroke="#b0e0e6" d="M6.427940452492605 20.274138458951207 L6.427940452492605 20.274138458951207 L5.994970836693545 20.147007150482544 L4.325570811773132 19.6568272353537 L4.157248972299903 19.60740350002624 L4.157248972299903 19.60740350002624 z"/>
<path fill="#b0e0e6" stroke="#b0e0e6" d="M7.977704131997694 22.062659405908615 L7.977704131997694 22.062659405908615 L8.314500438104613 24.405129937010084 L8.314500438104613 24.405129937010084 L7.990951905679313 22.154799726004768 z"/>
<path fill="#b0e0e6" stroke="#b0e0e6" d="M5.340530900127397 27.837271400625603 L6.690499527503747 26.96969926478146 L6.8775122444018475 26.849513492357527 L7.117970309267571 26.694980481229745 L7.331398886158289 26.557818266828424 L7.331398886158289 26.557818266828424 L5.340530900127397 27.837271400625603 z"/>
<path fill="#b0e0e6" stroke="#b0e0e6" d="M7.331398050787034 26.557819109824493 L7.331398050787034 26.557819109824493 L8.314498323861454 24.40512923453337 L8.314498323861454 24.40512923453337 z"/>
<path fill="#b0e0e6" stroke="#b0e0e6" d="M3.4679712333146457 19.809794200285314 L1.8865595360015797 20.274138419765986 L1.8865595360015797 20.274138419765986 L4.157251016194281 19.60740346084102 L4.157251016194281 19.60740346084102 L3.759959619022313 19.72405870250873 L3.6962303787051707 19.742771289751786 L3.522370347740282 19.793821184295027 z"/>
<path fill="#b0e0e6" stroke="#b0e0e6" d="M7.97770221024728 22.06265808480979 L7.97770221024728 22.06265808480979 L6.427941391534959 20.27413879422807 L6.427941391534959 20.27413879422807 z"/>
<path fill="#b0e0e6" stroke="#b0e0e6" d="M0.336795725979754 22.06265938548886 L0.336795725979754 22.06265938548886 L-5.801271648909205e-7 24.405129916590333 L-5.801271648909205e-7 24.405129916590333 z"/>
<path fill="#b0e0e6" stroke="#b0e0e6" d="M0.9831018292699168 26.557819164600634 L0.9831018292699168 26.557819164600634 L0.0000015561954966542457 24.40512928930951 L0.0000015561954966542457 24.40512928930951 z"/>
<path fill="#b0e0e6" stroke="#b0e0e6" d="M2.97397 27.837274099870758 L2.97397 27.837274099870758 L5.34053 27.837274099870758 L5.34053 27.837274099870758 z"/>
<path fill="#b0e0e6" stroke="#b0e0e6" d="M2.973969057502332 27.83727146655503 L2.973969057502332 27.83727146655503 L0.98310107147144 26.55781833275785 L0.98310107147144 26.55781833275785 z"/>
<path fill="#b0e0e6" stroke="#b0e0e6" d="M7.9777 22.06266 L6.42794 20.27414 L4.15725 19.6074 L1.88656 20.27414 L0.3368 22.06266 L0 24.40513 L0.9831 26.55782 L2.97397 27.83727 L5.34053 27.83727 L7.3314 26.55782 L8.3145 24.40513 z"/>
<path fill="#b0e0e6" stroke="#b0e0e6" d="M1.8865585256709378 20.274138722486565 L0.3367977069586162 22.06265801306829 L0.3367977069586162 22.06265801306829 L1.8865585256709378 20.274138722486565 z"/>
<path fill="#b0e0e6" stroke="#b0e0e6" d="M32.59492 27.0041 L32.57139 26.97695 L31.45147 25.68448 L31.3368 25.55215 L31 23.20968 L31.9831 21.05699 L33.64508 19.9889 L33.97397 19.77753 L34.56556 19.77753 L35.73635 19.77753 L35.79377 19.77753 L35.85197 19.77753 L36.34053 19.77753 L38.3314 21.05699 L39.3145 23.20968 L38.9777 25.55215 L37.42794 27.34067 L35.15725 28.0074 L32.88656 27.34067 z"/>
<path fill="#b0e0e6" stroke="#b0e0e6" d="M32.88656029842957 27.340668983641876 L32.88656029842957 27.340668983641876 L35.157249075418925 28.00740314883498 L35.157249075418925 28.00740314883498 z"/>
<path fill="#b0e0e6" stroke="#b0e0e6" d="M35.15725091307525 28.00740310964976 L35.15725091307525 28.00740310964976 L37.427939690064605 27.340668944456656 L37.427939690064605 27.340668944456656 z"/>
<path fill="#b0e0e6" stroke="#b0e0e6" d="M38.331399116568 21.05699040344977 L38.331399116568 21.05699040344977 L39.31449938964242 23.209680278740894 L39.31449938964242 23.209680278740894 z"/>
<path fill="#b0e0e6" stroke="#b0e0e6" d="M38.97770373468995 25.552150536967172 L38.97770373468995 25.552150536967172 L39.31450004079687 23.2096800058657 L39.31450004079687 23.2096800058657 z"/>
<path fill="#b0e0e6" stroke="#b0e0e6" d="M31.3368 25.55215 L32.88656 27.34067 L35.15725 28.0074 L37.42794 27.34067 L38.9777 25.55215 L39.3145 23.20968 L38.3314 21.05699 L36.34053 19.77753 L33.97397 19.77753 L31.9831 21.05699 L31 23.20968 z"/>
<path fill="#b0e0e6" stroke="#b0e0e6" d="M37.427939995658505 27.340669996238073 L38.97770081437083 25.552150705656356 L38.97770081437083 25.552150705656356 L37.427939995658505 27.340669996238073 z"/>
<path fill="#b0e0e6" stroke="#b0e0e6" d="M38.33140016894911 21.056989737110037 L36.34052763475829 19.777533680388025 L36.34052763475829 19.777533680388025 L38.33140016894911 21.056989737110037 z"/>
<path fill="#b0e0e6" stroke="#b0e0e6" d="M34.56556 19.77753307966812 L33.97397 19.77753307966812 L33.97397 19.77753307966812 L36.34053 19.77753307966812 L36.34053 19.77753307966812 L35.85197 19.77753307966812 L35.79377 19.77753307966812 L35.73635 19.77753307966812 z"/>
<path fill="#b0e0e6" stroke="#b0e0e6" d="M33.64507994126116 19.988899908600587 L31.983099788680615 21.056989671180606 L31.983099788680615 21.056989671180606 L33.97397232287143 19.777533614458594 L33.97397232287143 19.777533614458594 z"/>
<path fill="#b0e0e6" stroke="#b0e0e6" d="M31.98310076348895 21.05699034867363 L31.98310076348895 21.05699034867363 L31.00000049041453 23.20968022396475 L31.00000049041453 23.20968022396475 z"/>
<path fill="#b0e0e6" stroke="#b0e0e6" d="M30.99999981718057 23.209680026285454 L31.33679612328749 25.552150557386927 L31.33679612328749 25.552150557386927 L30.99999981718057 23.209680026285454 z"/>
<path fill="#b0e0e6" stroke="#b0e0e6" d="M32.57139267426028 26.976947682740224 L32.594920166534465 27.00409985569706 L32.88655992154739 27.340670067979577 L32.88655992154739 27.340670067979577 L31.336799102835066 25.552150777397856 L31.336799102835066 25.552150777397856 L31.451466018614873 25.684483449889917 z"/>
<path fill="#b0e0e6" stroke="#b0e0e6" d="M8.981 13.33842 L7.84159 11.35904 L7.95722 8.99531 L9.33243 7.06934 L11.53059 6.1926 L13.8538 6.64345 L13.88906 6.67715 L15.56446 8.27875 L16.11945 10.57931 L15.34256 12.81471 L13.48045 14.27523 L11.12432 14.49717 L9.02224 13.41005 z"/>
<path fill="#b0e0e6" stroke="#b0e0e6" d="M15.564458526756571 8.278751541132754 L15.564458526756571 8.278751541132754 L13.88905652385167 6.677153636334598 L13.853799891154875 6.643450113860874 L13.853799891154875 6.643450113860874 z"/>
<path fill="#b0e0e6" stroke="#b0e0e6" d="M11.530588328940453 6.192595810339088 L11.530588328940453 6.192595810339088 L9.332429392124856 7.069338475942564 L9.332429392124856 7.069338475942564 z"/>
<path fill="#b0e0e6" stroke="#b0e0e6" d="M7.957224393400692 8.995313137022034 L7.957224393400692 8.995313137022034 L9.332428629423351 7.0693390213664875 L9.332428629423351 7.0693390213664875 z"/>
<path fill="#b0e0e6" stroke="#b0e0e6" d="M11.530590556123919 6.192597134326802 L11.530590556123919 6.192597134326802 L13.853800302187567 6.643448442845591 L13.853800302187567 6.643448442845591 z"/>
<path fill="#b0e0e6" stroke="#b0e0e6" d="M7.841588161918106 11.359039910079817 L7.841588161918106 11.359039910079817 L7.9572233847640295 8.995310165584895 L7.9572233847640295 8.995310165584895 z"/>
<path fill="#b0e0e6" stroke="#b0e0e6" d="M11.124322330138376 14.497165494351776 L11.124322330138376 14.497165494351776 L9.022238434350074 13.410053027402954 L9.022238434350074 13.410053027402954 z"/>
<path fill="#b0e0e6" stroke="#b0e0e6" d="M11.124319565640821 14.497165388732236 L11.124319565640821 14.497165388732236 L13.48044993158898 14.275229273731199 L13.48044993158898 14.275229273731199 z"/>
<path fill="#b0e0e6" stroke="#b0e0e6" d="M15.342558060577895 12.81470752730757 L15.342558060577895 12.81470752730757 L13.480448168597002 14.275227665027993 L13.480448168597002 14.275227665027993 z"/>
<path fill="#b0e0e6" stroke="#b0e0e6" d="M15.342556166764611 12.814708667799861 L15.342556166764611 12.814708667799861 L16.119445689252863 10.579308501845738 L16.119445689252863 10.579308501845738 z"/>
<path fill="#b0e0e6" stroke="#b0e0e6" d="M16.11944646188456 10.57931085353722 L16.11944646188456 10.57931085353722 L15.564457824514868 8.278750524815417 L15.564457824514868 8.278750524815417 z"/>
<path fill="#b0e0e6" stroke="#b0e0e6" d="M7.84158784683583 11.35904123945269 L7.84158784683583 11.35904123945269 L8.981001712578133 13.33841901416733 L9.022236656469213 13.410051924678243 L9.022236656469213 13.410051924678243 z"/>
<path fill="#b0e0e6" stroke="#b0e0e6" d="M15.34256 12.81471 L16.11945 10.57931 L15.56446 8.27875 L13.8538 6.64345 L11.53059 6.1926 L9.33243 7.06934 L7.95722 8.99531 L7.84159 11.35904 L9.02224 13.41005 L11.12432 14.49717 L13.48045 14.27523 z"/>
<path fill="#b0e0e6" stroke="#b0e0e6" d="M26.27752 6.44253 L26.62364 6.26437 L28.9236 6.48548 L28.97933 6.49084 L29.12104 6.60243 L30.83863 7.95493 L31.61122 10.19182 L31.5168 10.57995 L31.05181 12.49131 L29.33801 14.12332 L27.01394 14.5697 L24.81747 13.68874 L23.44597 11.76012 L23.33488 9.39618 L24.51947 7.34744 z"/>
<path fill="#b0e0e6" stroke="#b0e0e6" d="M31.051811345361028 12.491310327294318 L31.051811345361028 12.491310327294318 L31.51679983319495 10.5799499594203 L31.611222468857278 10.191820600614218 L31.611222468857278 10.191820600614218 z"/>
<path fill="#b0e0e6" stroke="#b0e0e6" d="M26.62363995755306 6.2643704415333055 L26.62363995755306 6.2643704415333055 L28.97933043480446 6.4908354771617285 L28.97933043480446 6.4908354771617285 L28.92360020817936 6.4854778345172 z"/>
<path fill="#b0e0e6" stroke="#b0e0e6" d="M24.519469530716233 7.347439088282315 L24.519469530716233 7.347439088282315 L26.62364009025182 6.264370175339925 L26.62364009025182 6.264370175339925 L26.277518695026515 6.442527464716464 z"/>
<path fill="#b0e0e6" stroke="#b0e0e6" d="M23.445968346786994 11.760120077690296 L23.445968346786994 11.760120077690296 L23.334878489202996 9.396180070997664 L23.334878489202996 9.396180070997664 z"/>
<path fill="#b0e0e6" stroke="#b0e0e6" d="M23.445968409695084 11.76012113091586 L23.445968409695084 11.76012113091586 L24.817469979409164 13.68874001464279 L24.817469979409164 13.68874001464279 z"/>
<path fill="#b0e0e6" stroke="#b0e0e6" d="M27.013937814872467 14.569705448061665 L27.013937814872467 14.569705448061665 L24.81747052081599 13.688738701477327 L24.81747052081599 13.688738701477327 z"/>
<path fill="#b0e0e6" stroke="#b0e0e6" d="M27.013940800024084 14.569704165282614 L27.013940800024084 14.569704165282614 L29.33801021651922 14.123321127295737 L29.33801021651922 14.123321127295737 z"/>
<path fill="#b0e0e6" stroke="#b0e0e6" d="M29.338010566239735 14.123320594617626 L29.338010566239735 14.123320594617626 L31.05181077918869 12.491310818238812 L31.05181077918869 12.491310818238812 z"/>
<path fill="#b0e0e6" stroke="#b0e0e6" d="M30.838628606159375 7.954931770076803 L30.838628606159375 7.954931770076803 L29.121043504449037 6.6024255496031214 L28.979333033274514 6.490836147960697 L28.979333033274514 6.490836147960697 z"/>
<path fill="#b0e0e6" stroke="#b0e0e6" d="M30.838629905926346 7.954930032491705 L30.838629905926346 7.954930032491705 L31.611220010042864 10.191819996531335 L31.611220010042864 10.191819996531335 z"/>
<path fill="#b0e0e6" stroke="#b0e0e6" d="M24.519468647973728 7.347439218251478 L24.519468647973728 7.347439218251478 L23.334877168300757 9.396178362696975 L23.334877168300757 9.396178362696975 z"/>
<path fill="#b0e0e6" stroke="#b0e0e6" d="M27.01394 14.5697 L29.33801 14.12332 L31.05181 12.49131 L31.61122 10.19182 L30.83863 7.95493 L28.97933 6.49084 L26.62364 6.26437 L24.51947 7.34744 L23.33488 9.39618 L23.44597 11.76012 L24.81747 13.68874 z"/>
<path fill="#b0e0e6" stroke="#b0e0e6" d="M30.51658 29.18367 L31.51784 28.27808 L31.90183 27.8239 L31.97397 27.77753 L34.34053 27.77753 L36.3314 29.05699 L37.3145 31.20968 L36.9777 33.55215 L35.42794 35.34067 L33.15725 36.0074 L30.88656 35.34067 L29.3368 33.55215 L29 31.20968 L29.56336 29.9761 L29.88312 29.75659 z"/>
<path fill="#b0e0e6" stroke="#b0e0e6" d="M30.886560298429572 35.340668983641876 L30.886560298429572 35.340668983641876 L33.157249075418925 36.00740314883498 L33.157249075418925 36.00740314883498 z"/>
<path fill="#b0e0e6" stroke="#b0e0e6" d="M33.15725091307525 36.00740310964976 L33.15725091307525 36.00740310964976 L35.427939690064605 35.34066894445665 L35.427939690064605 35.34066894445665 z"/>
<path fill="#b0e0e6" stroke="#b0e0e6" d="M36.331399116568 29.05699040344977 L36.331399116568 29.05699040344977 L37.31449938964242 31.209680278740894 L37.31449938964242 31.209680278740894 z"/>
<path fill="#b0e0e6" stroke="#b0e0e6" d="M36.97770373468995 33.55215053696717 L36.97770373468995 33.55215053696717 L37.31450004079687 31.2096800058657 L37.31450004079687 31.2096800058657 z"/>
<path fill="#b0e0e6" stroke="#b0e0e6" d="M36.97770081437083 33.55215070565635 L35.427939995658505 35.34066999623808 L35.427939995658505 35.34066999623808 L36.97770081437083 33.55215070565635 z"/>
<path fill="#b0e0e6" stroke="#b0e0e6" d="M34.34052763475829 27.777533680388025 L34.34052763475829 27.777533680388025 L36.33140016894911 29.056989737110037 L36.33140016894911 29.056989737110037 z"/>
<path fill="#b0e0e6" stroke="#b0e0e6" d="M34.34053 27.77753307966812 L34.34053 27.77753307966812 L31.97397 27.77753307966812 L31.97397 27.77753307966812 z"/>
<path fill="#b0e0e6" stroke="#b0e0e6" d="M29.336799102835066 33.55215077739785 L29.336799102835066 33.55215077739785 L30.886559921547388 35.34067006797957 L30.886559921547388 35.34067006797957 z"/>
<path fill="#b0e0e6" stroke="#b0e0e6" d="M29.33679612328749 33.55215055738692 L29.33679612328749 33.55215055738692 L28.99999981718057 31.209680026285454 L28.99999981718057 31.209680026285454 z"/>
<path fill="#b0e0e6" stroke="#b0e0e6" d="M35.42794 35.34067 L36.9777 33.55215 L37.3145 31.20968 L36.3314 29.05699 L34.34053 27.77753 L31.97397 27.77753 L29.9831 29.05699 L29 31.20968 L29.3368 33.55215 L30.88656 35.34067 L33.15725 36.0074 z"/>
<path fill="#b0e0e6" stroke="#b0e0e6" d="M30.00587 32.36308 L30.08616 31.90771 L30.14971 31.54727 L30.37805 30.25231 L30.38597 30.2074 L32.02785 28.8297 L32.06279 28.80039 L32.86028 28.80039 L34.20611 28.80039 L34.25171 28.80039 L35.8936 30.17809 L35.92853 30.2074 L36.30072 32.31817 L36.30863 32.36308 L36.16418 32.61329 L35.81862 33.21181 L35.23697 34.21925 L35.21417 34.25875 L34.27585 34.60027 L33.2001 34.99181 L33.15725 35.0074 L31.14318 34.27434 L31.10033 34.25875 L30.02867 32.40257 z"/>
<path fill="#b0e0e6" stroke="#b0e0e6" d="M35.214168299290634 34.25874901809484 L35.214168299290634 34.25874901809484 L35.23697230354703 34.21925132995369 L35.818619184518475 33.21180952918145 L36.16417598522038 32.61328768206556 L36.30863260939881 32.36308150653733 L36.30863260939881 32.36308150653733 z"/>
<path fill="#b0e0e6" stroke="#b0e0e6" d="M29.69364972581385 29.690799874783412 L29.676305687643026 29.728778030613064 L29.622228979822694 29.847189534100757 L29.58220580525959 29.934828084326735 L29.56335797921269 29.976099077137594 L29.56335797921269 29.976099077137594 L29.00000049041453 31.20968022396475 L29.00000049041453 31.20968022396475 L29.98310076348895 29.05699034867363 L29.98310076348895 29.05699034867363 z"/>
<path fill="#b0e0e6" stroke="#b0e0e6" d="M31.90182848502076 27.823897642646234 L31.90182848502076 27.823897642646234 L31.506688963606624 28.07783838734039 L31.105230177755313 28.335840276592677 L30.208312665345083 28.912254147358006 L29.983099788680615 29.056989671180606 L29.983099788680615 29.056989671180606 L31.973972322871436 27.777533614458594 L31.973972322871436 27.777533614458594 L31.90182848502076 27.823897642646234 z"/>
<path fill="#b0e0e6" stroke="#b0e0e6" d="M29.88312 29.75659 L29.56336 29.9761 L29.58221 29.93483 L29.62223 29.84719 L29.67631 29.72878 L29.69365 29.6908 L29.9831 29.05699 L30.20831 28.91225 L31.10523 28.33584 L31.50669 28.07784 L31.90183 27.8239 L31.51784 28.27808 z"/>
<path fill="#b0e0e6" stroke="#b0e0e6" d="M31.10033134099528 34.25874631564664 L31.10033134099528 34.25874631564664 L31.14317937138768 34.27434172709773 L33.1572488224664 35.00740323524616 L33.1572488224664 35.00740323524616 z"/>
<path fill="#b0e0e6" stroke="#b0e0e6" d="M31.10033159199052 34.2587490808637 L31.10033159199052 34.2587490808637 L30.005867281882338 32.36308156930619 L30.005867281882338 32.36308156930619 L30.028666956011396 32.402571757447895 z"/>
<path fill="#b0e0e6" stroke="#b0e0e6" d="M33.157251160576656 35.0074031886574 L33.157251160576656 35.0074031886574 L33.20009919096906 34.99180777720631 L34.27584884556789 34.60026682822463 L35.214168642047795 34.25874626905787 L35.214168642047795 34.25874626905787 z"/>
<path fill="#b0e0e6" stroke="#b0e0e6" d="M30.38596933460737 30.207399882673307 L30.38596933460737 30.207399882673307 L30.37805045382157 30.252310080021 L30.149713922016232 31.547270691557394 L30.08615877481363 31.907709783966553 L30.005864866110844 32.36307909475667 L30.005864866110844 32.36307909475667 z"/>
<path fill="#b0e0e6" stroke="#b0e0e6" d="M32.06279 28.80038716940506 L32.06279 28.80038716940506 L34.25171 28.80038716940506 L34.25171 28.80038716940506 L34.20611 28.80038716940506 L32.86028 28.80038716940506 z"/>
<path fill="#b0e0e6" stroke="#b0e0e6" d="M30.38597121261228 30.207401445135016 L30.38597121261228 30.207401445135016 L32.062786749494165 28.800386126198052 L32.062786749494165 28.800386126198052 L32.02785075841912 28.829700903848696 z"/>
<path fill="#b0e0e6" stroke="#b0e0e6" d="M34.251713190612485 28.800386197576163 L34.251713190612485 28.800386197576163 L35.92852872749437 30.20740151651313 L35.92852872749437 30.20740151651313 L35.89359860466014 30.178091662901263 z"/>
<path fill="#b0e0e6" stroke="#b0e0e6" d="M35.92853052480519 30.20739990746267 L35.92853052480519 30.20739990746267 L36.308634993301716 32.363079119546036 L36.308634993301716 32.363079119546036 L36.30071641405291 32.31817063229932 z"/>
<path fill="#b0e0e6" stroke="#b0e0e6" d="M31.10033 34.25875 L33.15725 35.0074 L35.21417 34.25875 L36.30863 32.36308 L35.92853 30.2074 L34.25171 28.80039 L32.06279 28.80039 L30.38597 30.2074 L30.00587 32.36308 z"/>
<path fill="#b0e0e6" stroke="#b0e0e6" d="M31.517840038514407 28.278080032561906 L31.517840038514407 28.278080032561906 L31.901827322640212 27.823897736432873 L31.901827322640212 27.823897736432873 L31.901827322640212 27.823897736432873 z"/>
<path fill="#b0e0e6" stroke="#b0e0e6" d="M29.883123169710032 29.756593504586025 L29.883123169710032 29.756593504586025 L31.517839919454058 28.278079910944477 L31.517839919454058 28.278079910944477 L30.51657790461542 29.183667683240596 z"/>
<path fill="#b0e0e6" stroke="#b0e0e6" d="M29.883122675747774 29.756593897889104 L29.883122675747774 29.756593897889104 L29.56335926064974 29.976098922953298 L29.56335926064974 29.976098922953298 z"/>
</svg>