<?xml version="1.0" encoding="UTF-8"?>
<!-- Generated by jsxcad -->
<!DOCTYPE svg PUBLIC "-//W3C//DTD SVG 1.1 Tiny//EN" "http://www.w3.org/Graphics/SVG/1.1/DTD/svg11-tiny.dtd">
<svg baseProfile="tiny" height="16.000000000000014mm" width="16.000000000000014mm" viewBox="0 0 16.000000000000014 16.000000000000014" version="1.1" stroke="black" stroke-width=".1" fill="none" xmlns="http://www.w3.org/2000/svg">
<path fill="#000000" stroke="#000000" d="M12.000001552963264 14.928201552963264 L12.000001552963264 14.928201552963264 L14.928201552963264 12.000001552963264 L14.928201552963264 12.000001552963264 z"/>
<path fill="#000000" stroke="#000000" d="M14.928202897868847 3.999999223518292 L14.928202897868847 3.999999223518292 L16.000000000000004 7.999999999999998 L16.000000000000004 7.999999999999998 z"/>
<path fill="#000000" stroke="#000000" d="M8.000000000000002 8.528275589412389e-15 L8.000000000000002 8.528275589412389e-15 L3.9999992235182957 1.071797102131165 L3.9999992235182957 1.071797102131165 z"/>
<path fill="#000000" stroke="#000000" d="M7.999999999999998 4.730632158524522e-15 L7.999999999999998 4.730632158524522e-15 L12.000000776481704 1.0717971021311614 L12.000000776481704 1.0717971021311614 z"/>
<path fill="#000000" stroke="#000000" d="M6.006739450287726 1.211589144630993 L6.006739450287726 1.211589144630993 L2.6530707268555305 3.3668611310092995 L2.6530707268555305 3.3668611310092995 L2.6878499316331217 3.344509893619059 L3.384098704265899 2.8970579837983537 L3.5373006780688203 2.7986010550956952 L4.3267512689793985 2.2912519745705175 L5.136151365822886 1.7710821252619275 L5.171668037677476 1.7482569465665054 z"/>
<path fill="#000000" stroke="#000000" d="M3.9999984470367433 14.928201552963257 L3.9999984470367433 14.928201552963257 L1.0717984470367432 12.000001552963257 L1.0717984470367432 12.000001552963257 z"/>
<path fill="#000000" stroke="#000000" d="M1.0718 12 L4 14.9282 L8 16 L12 14.9282 L14.9282 12 L16 8 L14.9282 4 L12 1.0718 L8 0 L4 1.0718 L1.0718 4 L0 8 z"/>
<path fill="#000000" stroke="#000000" d="M14.92820289786885 12.000000776481707 L16.000000000000007 8.000000000000002 L16.000000000000007 8.000000000000002 L14.92820289786885 12.000000776481707 z"/>
<path fill="#000000" stroke="#000000" d="M14.928201552963257 3.9999984470367433 L12.000001552963257 1.0717984470367432 L12.000001552963257 1.0717984470367432 L14.928201552963257 3.9999984470367433 z"/>
<path fill="#000000" stroke="#000000" d="M8.000000000000002 16.000000000000007 L8.000000000000002 16.000000000000007 L12.000000776481707 14.92820289786885 L12.000000776481707 14.92820289786885 z"/>
<path fill="#000000" stroke="#000000" d="M3.99999844703675 1.0717984470367503 L1.0717984470367503 3.99999844703675 L1.0717984470367503 3.99999844703675 L3.99999844703675 1.0717984470367503 z"/>
<path fill="#000000" stroke="#000000" d="M1.071797102131165 3.9999992235182957 L8.160881496722713e-15 8.000000000000002 L8.160881496722713e-15 8.000000000000002 L1.071797102131165 3.9999992235182957 z"/>
<path fill="#000000" stroke="#000000" d="M5.0980262512141985e-15 7.999999999999998 L1.0717971021311614 12.000000776481704 L1.0717971021311614 12.000000776481704 L5.0980262512141985e-15 7.999999999999998 z"/>
<path fill="#000000" stroke="#000000" d="M3.999999223518292 14.928202897868847 L3.999999223518292 14.928202897868847 L7.999999999999998 16.000000000000004 L7.999999999999998 16.000000000000004 z"/>
<path fill="#000000" stroke="#000000" d="M14.435646768254388 10.939059535345082 L14.435646768254388 10.939059535345082 L15.002987333690122 6.993119616642477 L15.002987333690122 6.993119616642477 L14.945734659948707 7.3913206699995415 L14.762026410635087 8.669039483927186 L14.666489964769914 9.333509994934678 L14.479589672525982 10.63342995291634 z"/>
<path fill="#000000" stroke="#000000" d="M9.993260549712277 1.211589144630986 L9.993260549712277 1.211589144630986 L10.296469989403125 1.4064500164890585 L10.863848634177117 1.7710821252619207 L12.615901295734105 2.897057983798347 L13.312150068366883 3.3445098936190534 L13.346929273144474 3.3668611310092933 L13.346929273144474 3.3668611310092933 z"/>
<path fill="#000000" stroke="#000000" d="M1.5643532317456248 10.93905953534508 L1.5643532317456248 10.93905953534508 L1.5103213817983734 10.563259801327366 L1.4916215711309742 10.433199774105445 L1.1319961892136312 7.931950547908416 L0.9970126663098912 6.993119616642475 L0.9970126663098912 6.993119616642475 z"/>
<path fill="#000000" stroke="#000000" d="M7.999999948440474 15.074999824404388 L7.999999948440474 15.074999824404388 L11.825029894613474 13.951869641086471 L11.825029894613474 13.951869641086471 L11.50520004756667 14.045780161997193 L9.309510800614248 14.690492726641601 z"/>
<path fill="#000000" stroke="#000000" d="M1.5643514031510075 10.939058784162532 L4.174968632373288 13.951871185055483 L4.174968632373288 13.951871185055483 L3.8970938602941883 13.631186655035501 L2.8376717113761845 12.408548517083853 L1.5643514031510075 10.939058784162532 z"/>
<path fill="#000000" stroke="#000000" d="M11.82503136762672 13.95187118505549 L11.82503136762672 13.95187118505549 L14.435648596849 10.939058784162539 L14.435648596849 10.939058784162539 L14.038543197617434 11.397342770751727 L12.334487365293402 13.363927717013366 L11.967886813404654 13.787007238798967 z"/>
<path fill="#000000" stroke="#000000" d="M13.346928296887814 3.366860777785431 L13.346928296887814 3.366860777785431 L13.429710987698318 3.5481295489332 L14.883543632932179 6.731578340895127 L15.002986467515962 6.993121613231733 L15.002986467515962 6.993121613231733 z"/>
<path fill="#000000" stroke="#000000" d="M0.9970135324840492 6.993121613231739 L0.9970135324840492 6.993121613231739 L1.116456367067831 6.731578340895132 L2.5702890123016933 3.5481295489332054 L2.6530717031121958 3.3668607777854365 L2.6530717031121958 3.3668607777854365 z"/>
<path fill="#000000" stroke="#000000" d="M9.99326 1.211587429046638 L6.00674 1.211587429046638 L6.00674 1.211587429046638 L9.99326 1.211587429046638 z"/>
<path fill="#000000" stroke="#000000" d="M4.06293 12.69202 L1.96805 9.0636 L2.69559 4.9375 L5.90513 2.24438 L10.09487 2.24438 L13.30441 4.9375 L14.03195 9.0636 L11.93707 12.69202 L8 14.125 z"/>
<path fill="#000000" stroke="#000000" d="M11.176558978945382 12.968827194675223 L10.430631000808315 13.240322749698509 L9.971209454601885 13.407538501530855 L9.312360022166505 13.64734006090198 L8.982660335454327 13.767340921653282 L8.000000000000002 14.125000000000007 L8.000000000000002 14.125000000000007 L11.937071236277099 12.692023396643739 L11.937071236277099 12.692023396643739 z"/>
<path fill="#000000" stroke="#000000" d="M12.635365009263879 11.482547118597198 L12.223528393326184 12.195869072386452 L11.937074144465267 12.692022392808102 L11.937074144465267 12.692022392808102 L14.031946068988198 9.063597730429311 L14.031946068988198 9.063597730429311 L13.779129139765757 9.501489503343535 L13.6770816458402 9.678240950226268 L13.351432665083308 10.242281538686541 L13.17851536278794 10.541783096207014 L12.949148079128745 10.93905889098448 z"/>
<path fill="#000000" stroke="#000000" d="M9.25498 2.2443828582763743 L10.09487 2.2443828582763743 L10.09487 2.2443828582763743 L5.90513 2.2443828582763743 L5.90513 2.2443828582763743 L6.47588 2.2443828582763743 L8.69829 2.2443828582763743 L8.74024 2.2443828582763743 z"/>
<path fill="#000000" stroke="#000000" d="M13.887995276311791 8.247200832913723 L14.031948530129034 9.063600259177923 L14.031948530129034 9.063600259177923 L13.304405819224854 4.937500737183498 L13.304405819224854 4.937500737183498 L13.789433522102755 7.688229378958221 z"/>
<path fill="#000000" stroke="#000000" d="M10.38537078450121 2.4881390650677955 L10.694821098605168 2.747798690733248 L12.234558551532851 4.039791726216052 L13.304408218897754 4.937502122635154 L13.304408218897754 4.937502122635154 L10.094870009082989 2.2443799891753136 L10.094870009082989 2.2443799891753136 z"/>
<path fill="#000000" stroke="#000000" d="M5.375279955666992 13.169680121803948 L5.189719412582606 13.10214161391618 L4.591200519402123 12.884298572954256 L4.062928763722901 12.692023396643734 L4.062928763722901 12.692023396643734 L7.999999999999998 14.125000000000004 L7.999999999999998 14.125000000000004 z"/>
<path fill="#000000" stroke="#000000" d="M4.950782292972415 3.045172732658311 L5.472162423910636 2.607682888704419 L5.597892429325642 2.5021828951577714 L5.905129990917016 2.2443799891753202 L5.905129990917016 2.2443799891753202 L2.6955917811022516 4.93750212263516 L2.6955917811022516 4.93750212263516 L3.370949670681856 4.370809607533889 L3.7371338655998283 4.063544606842815 L4.33066935562687 3.5655092320659523 L4.835280323552113 3.1420903855944218 z"/>
<path fill="#000000" stroke="#000000" d="M2.5232910690206043 5.914680188497186 L2.695594180775158 4.937500737183501 L2.695594180775158 4.937500737183501 L1.9680514698709786 9.063600259177925 L1.9680514698709786 9.063600259177925 L2.453079474285806 6.312869907302398 z"/>
<path fill="#000000" stroke="#000000" d="M2.666342295810478 10.273068674513222 L2.32291835415981 9.678240950226263 L1.968053931011811 9.063597730429304 L1.968053931011811 9.063597730429304 L4.062925855534742 12.692022392808095 L4.062925855534742 12.692022392808095 L3.927778743777486 12.457940725280395 L3.3542904032331475 11.464629767193236 L3.2072172491872895 11.209891588182433 L3.0508519208712634 10.939058890984475 L2.82148463721207 10.541783096207007 z"/>
<path fill="#000000" stroke="#000000" d="M4.17497 13.95187 L1.56435 10.93906 L0.99701 6.99312 L2.65307 3.36686 L6.00674 1.21159 L9.99326 1.21159 L13.34693 3.36686 L15.00299 6.99312 L14.43565 10.93906 L11.82503 13.95187 L8 15.075 z"/>
<path fill="#000000" stroke="#000000" d="M2.66634 10.27307 L2.82149 10.54178 L3.05085 10.93906 L3.20722 11.20989 L3.35429 11.46463 L3.92778 12.45794 L4.06293 12.69202 L4.5912 12.8843 L5.18972 13.10214 L5.37528 13.16968 L8 14.125 L8.98266 13.76734 L9.31236 13.64734 L9.97121 13.40754 L10.43063 13.24032 L11.17656 12.96883 L11.93707 12.69202 L12.22353 12.19587 L12.63537 11.48255 L12.94915 10.93906 L13.17851 10.54178 L13.35143 10.24228 L13.67708 9.67824 L13.77913 9.50149 L14.03195 9.0636 L13.888 8.2472 L13.78943 7.68823 L13.30441 4.9375 L12.23456 4.03979 L10.69482 2.7478 L10.38537 2.48814 L10.09487 2.24438 L9.25498 2.24438 L8.74024 2.24438 L8.69829 2.24438 L6.47588 2.24438 L5.90513 2.24438 L5.59789 2.50218 L5.47216 2.60768 L4.95078 3.04517 L4.83528 3.14209 L4.33067 3.56551 L3.73713 4.06354 L3.37095 4.37081 L2.69559 4.9375 L2.52329 5.91468 L2.45308 6.31287 L1.96805 9.0636 L2.32292 9.67824 z"/>
<path fill="#4682b4" stroke="#4682b4" d="M4.600850343704231 6.62207 L4.600850343704231 6.0375 L4.600850343704231 6.0375 L4.600850343704231 9.9625 L4.600850343704231 9.9625 z"/>
<path fill="#4682b4" stroke="#4682b4" d="M4.600850096249888 6.037500166709696 L7.49373973846818 4.367289547013602 L8.000000020647658 4.075000035762795 L8.000000020647658 4.075000035762795 L4.600850096249888 6.037500166709696 z"/>
<path fill="#4682b4" stroke="#4682b4" d="M7.999999979352349 11.924999964237221 L11.399149903750121 9.96249983329032 L11.399149903750121 9.96249983329032 L8.506260261531828 11.632710452986414 L7.999999979352349 11.924999964237221 z"/>
<path fill="#4682b4" stroke="#4682b4" d="M5.10711 10.25479 L5.51165 10.48835 L8 11.925 L8.50626 11.63271 L11.39915 9.9625 L11.39915 9.37793 L11.39915 6.0375 L10.89289 5.74521 L10.48835 5.51165 L8 4.075 L7.49374 4.36729 L4.60085 6.0375 L4.60085 6.62207 L4.60085 9.9625 z"/>
<path fill="#4682b4" stroke="#4682b4" d="M6.11909 5.41115 L6.15447 5.41115 L9.41893 5.41115 L9.88091 5.41115 L9.94676 5.6138 L10.05453 5.94547 L10.90062 8.54949 L11.04338 8.98885 L10.19538 9.60497 L8.37375 10.92846 L8 11.2 L7.28358 10.67949 L6.92308 10.41757 L6.70953 10.26242 L6.14658 9.85342 L5.51844 9.39704 L5.33037 9.2604 L5.20007 9.16573 L4.95662 8.98885 L5.07359 8.62884 L5.4398 7.50176 L5.79906 6.39608 L5.97633 5.85051 L6.05496 5.6085 L6.10709 5.44808 z"/>
<path fill="#4682b4" stroke="#4682b4" d="M5.511649824718451 10.488350303596548 L5.10711037842936 10.25478934454112 L4.600850096249882 9.962499833290313 L4.600850096249882 9.962499833290313 L8.000000020647652 11.924999964237214 L8.000000020647652 11.924999964237214 z"/>
<path fill="#4682b4" stroke="#4682b4" d="M7.999999979352344 4.0750000357627885 L10.488350175281546 5.511649696403456 L10.892889621570635 5.745210655458883 L11.399149903750114 6.03750016670969 L11.399149903750114 6.03750016670969 L7.999999979352344 4.0750000357627885 z"/>
<path fill="#4682b4" stroke="#4682b4" d="M11.399149656295783 6.0375 L11.399149656295783 9.37793 L11.399149656295783 9.9625 L11.399149656295783 9.9625 L11.399149656295783 6.0375 z"/>
<path fill="#4682b4" stroke="#4682b4" d="M9.880913782751117 5.411148770909734 L9.880913782751117 5.411148770909734 L10.084852953764077 6.038809040263934 L11.043379371342102 8.988850204263318 L11.043379371342102 8.988850204263318 L10.90062234843527 8.549489236947174 L10.054525715428651 5.945471392141531 L9.94675923509077 5.613800248534058 z"/>
<path fill="#4682b4" stroke="#4682b4" d="M8.00000002267496 11.200000031209402 L8.00000002267496 11.200000031209402 L8.373747510592743 10.928456573625022 L10.195376688855127 9.604965442600278 L11.043382350986734 8.988853235855482 L11.043382350986734 8.988853235855482 L10.89799985813931 9.09447980474552 L10.509453715930562 9.376775114539402 z"/>
<path fill="#4682b4" stroke="#4682b4" d="M9.88091 5.411145687103279 L9.88091 5.411145687103279 L9.41893 5.411145687103279 L6.15447 5.411145687103279 L6.11909 5.411145687103279 L6.11909 5.411145687103279 L6.77906 5.411145687103279 L7.22858 5.411145687103279 L8 5.411145687103279 L8.77142 5.411145687103279 z"/>
<path fill="#4682b4" stroke="#4682b4" d="M4.956620628657909 8.988850204263322 L4.956620628657909 8.988850204263322 L5.85396394321489 6.227111281228102 L5.9999995546590945 5.777659855299977 L5.9999995546590945 5.777659855299977 L6.092022947001649 5.494440957538819 L6.119086217248894 5.411148770909738 L6.119086217248894 5.411148770909738 L6.107086865225711 5.448078981450155 L6.054962641113057 5.608500858149597 L5.9763291943420604 5.850509738225884 L5.799062425846513 6.3960807882052615 L5.439804970451224 7.501761614997398 L5.073594547314058 8.628841477511807 z"/>
<path fill="#4682b4" stroke="#4682b4" d="M6.000000000000007 9.74691 L6.000000000000007 9.74691 L6.000000000000007 9.31136 L6.000000000000007 8.8758 L6.000000000000007 7.60317 L6.000000000000007 7.5391 L6.000000000000007 7.4663 L6.000000000000007 5.77766 L6.000000000000007 5.77766 L6.000000000000007 9.74691 L6.000000000000007 9.74691 z"/>
<path fill="#4682b4" stroke="#4682b4" d="M5.85396 6.22711 L4.95662 8.98885 L5.65072 9.49315 L6 9.74691 L6 5.77766 z"/>
<path fill="#4682b4" stroke="#4682b4" d="M4.11091 11.88909 L8 13.5 L11.88909 11.88909 L13.5 8 L11.88909 4.11091 L8 2.5 L4.11091 4.11091 L2.5 8 z"/>
<path fill="#4682b4" stroke="#4682b4" d="M4.95662 8.98885 L5.50883 7.28932 L5.95593 5.91328 L6.0458 5.63669 L6.11909 5.41115 L9.35294 5.41115 L9.88091 5.41115 L10.05453 5.94547 L10.52694 7.39942 L10.88023 8.48672 L11.04338 8.98885 L9.36282 10.20985 L8.42714 10.88966 L8 11.2 L7.18124 10.60513 L6.76923 10.30579 L6.14658 9.85342 L5.5987 9.45535 L5.38376 9.29919 z"/>
<path fill="#4682b4" stroke="#4682b4" d="M4.1109133797000705 4.110911399917724 L4.1109133797000705 4.110911399917724 L2.5000000000000084 8.000000000000004 L2.5000000000000084 8.000000000000004 z"/>
<path fill="#4682b4" stroke="#4682b4" d="M2.500000000000003 7.999999999999998 L2.500000000000003 7.999999999999998 L4.110913379700065 11.889088600082276 L4.110913379700065 11.889088600082276 z"/>
<path fill="#4682b4" stroke="#4682b4" d="M11.889088600082276 4.110913379700065 L11.889088600082276 4.110913379700065 L7.999999999999998 2.5000000000000036 L7.999999999999998 2.5000000000000036 z"/>
<path fill="#4682b4" stroke="#4682b4" d="M8.000000000000002 2.5000000000000084 L8.000000000000002 2.5000000000000084 L4.110911399917724 4.1109133797000705 L4.110911399917724 4.1109133797000705 z"/>
<path fill="#4682b4" stroke="#4682b4" d="M13.500000000000004 7.999999999999998 L11.88908662029994 4.110911399917718 L11.88908662029994 4.110911399917718 L13.500000000000004 7.999999999999998 z"/>
<path fill="#4682b4" stroke="#4682b4" d="M11.889088600082282 11.889086620299945 L11.889088600082282 11.889086620299945 L8.000000000000002 13.500000000000007 L8.000000000000002 13.500000000000007 z"/>
<path fill="#4682b4" stroke="#4682b4" d="M11.889086620299945 11.889088600082282 L11.889086620299945 11.889088600082282 L13.500000000000007 8.000000000000002 L13.500000000000007 8.000000000000002 z"/>
<path fill="#4682b4" stroke="#4682b4" d="M11.88909 4.11091 L13.5 8 L11.88909 11.88909 L8 13.5 L4.11091 11.88909 L2.5 8 L4.11091 4.11091 L8 2.5 z"/>
<path fill="#4682b4" stroke="#4682b4" d="M6 5.77766 L6 8.81722 L6 8.87302 L6 9.3918 L6 9.56936 L6 9.74691 L6.14658 9.85342 L6.46845 10.08726 L7.03893 10.50174 L8 11.2 L9.36282 10.20985 L10.08231 9.68711 L11.04338 8.98885 L10.52694 7.39942 L10.24801 6.54095 L10.05453 5.94547 L9.88091 5.41115 L7.30703 5.41115 L6.11909 5.41115 L6.07037 5.56108 z"/>
<path fill="#4682b4" stroke="#4682b4" d="M11.043382350986734 8.988853235855482 L11.043382350986734 8.988853235855482 L10.082311523806467 9.687112097339575 L9.362821575288866 10.209852168199012 L8.00000002267496 11.200000031209402 L8.00000002267496 11.200000031209402 L8.427142214799053 10.889663048409231 L9.362821575288866 10.209852168199012 z"/>
<path fill="#4682b4" stroke="#4682b4" d="M7.999999999999998 13.500000000000004 L7.999999999999998 13.500000000000004 L4.110911399917718 11.88908662029994 L4.110911399917718 11.88908662029994 z"/>
<path fill="#4682b4" stroke="#4682b4" d="M11.043379371342102 8.988850204263318 L11.043379371342102 8.988850204263318 L10.880227637729497 8.486720767548164 L10.526942012729116 7.399419346024708 L10.054525715428651 5.945471392141531 L9.880913782751117 5.411148770909734 L9.880913782751117 5.411148770909734 L10.054525715428651 5.945471392141531 L10.248008581217709 6.54095046099028 L10.526942012729116 7.399419346024708 z"/>
<path fill="#4682b4" stroke="#4682b4" d="M5.99999765908571 9.746913221991951 L5.99999765908571 9.746913221991951 L5.99999765908571 9.746913221991951 L5.99999765908571 9.746913221991951 L5.650720886123071 9.493148780356282 L4.956617649013269 8.988853235855474 L4.956617649013269 8.988853235855474 L5.383759841137364 9.299190218655648 L5.598698386793641 9.45535222038796 L6.146584026977326 9.853414457341476 L6.769228450687962 10.305792132444976 L7.181237118657819 10.605133965827095 L7.999999977325044 11.200000031209397 L7.999999977325044 11.200000031209397 L7.038929150144779 10.501741169725305 L6.468448199578795 10.087262478067077 L6.146584026977326 9.853414457341476 z"/>
<path fill="#4682b4" stroke="#4682b4" d="M5.9999995546590945 5.777659855299977 L5.9999995546590945 5.777659855299977 L6.070370552611916 5.561080179554484 L6.119086217248894 5.411148770909738 L6.119086217248894 5.411148770909738 L6.045803106346099 5.636691009312966 L5.955933528721371 5.913281146551002 L5.508831294395789 7.28932042057466 L4.956620628657909 8.988850204263322 L4.956620628657909 8.988850204263322 L5.85396394321489 6.227111281228102 z"/>
<path fill="#4682b4" stroke="#4682b4" d="M9.88091 5.411145687103279 L9.88091 5.411145687103279 L9.35294 5.411145687103279 L6.11909 5.411145687103279 L6.11909 5.411145687103279 L7.30703 5.411145687103279 z"/>
<path fill="#4682b4" stroke="#4682b4" d="M6.000000000000007 9.74691 L6.000000000000007 9.74691 L6.000000000000007 9.56936 L6.000000000000007 9.3918 L6.000000000000007 8.87302 L6.000000000000007 8.81722 L6.000000000000007 5.77766 L6.000000000000007 5.77766 L6.000000000000007 9.74691 L6.000000000000007 9.74691 z"/>
<path fill="#4682b4" stroke="#4682b4" d="M5.85396 6.22711 L4.95662 8.98885 L5.65072 9.49315 L6 9.74691 L6 5.77766 z"/>
</svg>