<?xml version="1.0" encoding="UTF-8"?>
<!-- Generated by jsxcad -->
<!DOCTYPE svg PUBLIC "-//W3C//DTD SVG 1.1 Tiny//EN" "http://www.w3.org/Graphics/SVG/1.1/DTD/svg11-tiny.dtd">
<svg baseProfile="tiny" height="29.54609mm" width="29.58918mm" viewBox="-0.00047 0.04747 29.58918 29.54609" version="1.1" stroke="black" stroke-width=".1" fill="none" xmlns="http://www.w3.org/2000/svg">
<path fill="#000000" stroke="#000000" d="M29.55084 15.94563 L29.17872 16.09840 L28.80699 16.22406 L28.43671 16.32006 L28.06922 16.38165 L27.70708 16.39410 L27.58810 16.37938 L27.42358 17.38253 L27.54103 17.40659 L27.88023 17.53405 L28.20880 17.70979 L28.52902 17.91903 L28.84114 18.15684 L29.14498 18.42047 L28.95724 19.09601 L28.56096 19.16508 L28.17089 19.20775 L27.78863 19.22178 L27.41650 19.20280 L27.06017 19.13698 L26.94715 19.09698 L26.57915 20.02172 L26.68875 20.07032 L26.99287 20.26732 L27.27629 20.50922 L27.54440 20.78206 L27.79849 21.08107 L28.03897 21.40354 L27.71121 22.02336 L27.30932 22.00615 L26.91914 21.96448 L26.54271 21.89649 L26.18323 21.79842 L25.84920 21.65797 L25.74734 21.59475 L25.18176 22.43102 L25.27836 22.50202 L25.53307 22.75975 L25.75792 23.05687 L25.96117 23.38093 L26.14511 23.72755 L26.31071 24.09413 L25.85747 24.62909 L25.46866 24.52596 L25.09654 24.40146 L24.74350 24.25421 L24.41347 24.08121 L24.11740 23.87230 L24.03150 23.78868 L23.29520 24.48772 L23.37426 24.57784 L23.56753 24.88435 L23.72317 25.22290 L23.85191 25.58311 L23.95695 25.96119 L24.03977 26.35483 L23.48202 26.77971 L23.12451 26.59531 L22.78791 26.39364 L22.47483 26.17386 L22.18977 25.93389 L21.94560 25.66615 L21.87971 25.56600 L20.99920 26.09626 L21.05690 26.20134 L21.17934 26.54238 L21.25812 26.90658 L21.30595 27.28610 L21.32677 27.67794 L21.32254 28.08017 L20.68613 28.37444 L20.37694 28.11712 L20.09189 27.84745 L19.83372 27.56519 L19.60728 27.26927 L19.42676 26.95508 L19.38407 26.84305 L18.42623 27.16561 L18.46001 27.28063 L18.50631 27.64002 L18.50499 28.01263 L18.47016 28.39357 L18.40629 28.78073 L18.31574 29.17266 L17.63096 29.32331 L17.38429 29.00556 L17.16384 28.68095 L16.97235 28.34980 L16.81478 28.01214 L16.70598 27.66650 L16.68837 27.54792 L15.68383 27.65711 L15.69210 27.77671 L15.66011 28.13765 L15.57876 28.50128 L15.46290 28.86583 L15.31734 29.23023 L15.14469 29.59355 L14.44354 29.59355 L14.27089 29.23023 L14.12534 28.86583 L14.00947 28.50128 L13.92813 28.13765 L13.89614 27.77671 L13.90441 27.65711 L12.89987 27.54792 L12.88225 27.66650 L12.77346 28.01214 L12.61588 28.34980 L12.42440 28.68095 L12.20395 29.00556 L11.95727 29.32331 L11.27250 29.17266 L11.18194 28.78073 L11.11808 28.39357 L11.08324 28.01263 L11.08192 27.64002 L11.12823 27.28063 L11.16200 27.16561 L10.20416 26.84305 L10.16148 26.95508 L9.98096 27.26927 L9.75451 27.56519 L9.49635 27.84745 L9.21129 28.11712 L8.90210 28.37444 L8.26569 28.08017 L8.26147 27.67794 L8.28229 27.28610 L8.33012 26.90658 L8.40889 26.54238 L8.53134 26.20134 L8.58904 26.09626 L7.70853 25.56600 L7.64264 25.66615 L7.39846 25.93389 L7.11340 26.17386 L6.80033 26.39364 L6.46372 26.59531 L6.10622 26.77971 L5.54847 26.35483 L5.63129 25.96119 L5.73632 25.58311 L5.86506 25.22290 L6.02070 24.88435 L6.21398 24.57784 L6.29303 24.48772 L5.55674 23.78868 L5.47083 23.87230 L5.17476 24.08121 L4.84474 24.25421 L4.49170 24.40146 L4.11958 24.52596 L3.73076 24.62909 L3.27752 24.09413 L3.44313 23.72755 L3.62706 23.38093 L3.83031 23.05687 L4.05517 22.75975 L4.30988 22.50202 L4.40648 22.43102 L3.84089 21.59475 L3.73904 21.65797 L3.40500 21.79842 L3.04552 21.89649 L2.66909 21.96448 L2.27892 22.00615 L1.87703 22.02336 L1.54927 21.40354 L1.78974 21.08107 L2.04383 20.78206 L2.31194 20.50922 L2.59537 20.26732 L2.89949 20.07032 L3.00908 20.02172 L2.64109 19.09698 L2.52807 19.13698 L2.17174 19.20280 L1.79961 19.22178 L1.41734 19.20775 L1.02728 19.16508 L0.63099 19.09601 L0.44326 18.42047 L0.74709 18.15684 L1.05921 17.91903 L1.37943 17.70979 L1.70800 17.53405 L2.04720 17.40659 L2.16465 17.38253 L2.00014 16.37938 L1.88116 16.39410 L1.51902 16.38165 L1.15153 16.32006 L0.78125 16.22406 L0.40952 16.09840 L0.03740 15.94563 L-0.00047 15.24550 L0.35299 15.05348 L0.70900 14.88845 L1.06676 14.75307 L1.42546 14.65220 L1.78415 14.60076 L1.90402 14.60256 L1.95796 13.60247 L1.83859 13.59137 L1.48752 13.50164 L1.14175 13.36278 L0.80062 13.18969 L0.46443 12.98733 L0.13367 12.75841 L0.24663 12.06642 L0.63302 11.95456 L1.01611 11.86961 L1.39456 11.81399 L1.76655 11.79229 L2.12793 11.81886 L2.24463 11.84629 L2.52063 10.85249 L2.40650 10.81581 L2.08316 10.65223 L1.77564 10.44181 L1.48007 10.19900 L1.19564 9.92867 L0.92227 9.63358 L1.18233 8.98244 L1.58377 8.95686 L1.97617 8.95685 L2.35769 8.98446 L2.72555 9.04378 L3.07262 9.14795 L3.18062 9.19999 L3.65772 8.30225 L3.55416 8.24186 L3.27363 8.01249 L3.01863 7.74080 L2.78227 7.44004 L2.56273 7.11480 L2.35931 6.76777 L2.75346 6.18790 L3.15100 6.24936 L3.53420 6.33384 L3.90082 6.44295 L4.24728 6.58009 L4.56378 6.75654 L4.65804 6.83062 L5.31451 6.05964 L5.22635 5.97840 L5.00171 5.69408 L4.81109 5.37391 L4.64493 5.02936 L4.50045 4.66454 L4.37640 4.28188 L4.88602 3.80033 L5.26104 3.94582 L5.61711 4.11072 L5.95171 4.29611 L6.26057 4.50454 L6.53173 4.74491 L6.60785 4.83752 L7.39879 4.23688 L7.33002 4.13869 L7.17127 3.81295 L7.05341 3.45947 L6.96466 3.08738 L6.90142 2.70012 L6.86195 2.29980 L7.46264 1.93818 L7.79794 2.16040 L8.11059 2.39753 L8.39788 2.65009 L8.65511 2.91967 L8.86868 3.21240 L8.92328 3.31913 L9.85159 2.88985 L9.80562 2.77913 L9.72090 2.42681 L9.68210 2.05622 L9.67573 1.67375 L9.69754 1.28197 L9.74538 0.88256 L10.40996 0.65908 L10.68941 0.94842 L10.94352 1.24742 L11.16954 1.55603 L11.36254 1.87477 L11.50791 2.20668 L11.53819 2.32268 L12.52329 2.10632 L12.50217 1.98831 L12.49507 1.62603 L12.53674 1.25575 L12.61264 0.88083 L12.71806 0.50286 L12.85054 0.12305 L13.54761 0.04747 L13.75841 0.39006 L13.94240 0.73665 L14.09689 1.08659 L14.21696 1.43933 L14.28767 1.79472 L14.29233 1.91452 L15.29590 1.91452 L15.30057 1.79472 L15.37128 1.43933 L15.49135 1.08659 L15.64583 0.73665 L15.82982 0.39006 L16.04063 0.04747 L16.73769 0.12305 L16.87017 0.50286 L16.97560 0.88083 L17.05149 1.25575 L17.09317 1.62603 L17.08607 1.98831 L17.06495 2.10632 L18.05004 2.32268 L18.08032 2.20668 L18.22569 1.87477 L18.41870 1.55603 L18.64471 1.24742 L18.89883 0.94842 L19.17828 0.65908 L19.84285 0.88256 L19.89069 1.28197 L19.91251 1.67375 L19.90614 2.05622 L19.86734 2.42681 L19.78261 2.77913 L19.73665 2.88985 L20.66496 3.31913 L20.71955 3.21240 L20.93312 2.91967 L21.19036 2.65009 L21.47765 2.39753 L21.79029 2.16040 L22.12559 1.93818 L22.72629 2.29980 L22.68682 2.70012 L22.62358 3.08738 L22.53482 3.45947 L22.41697 3.81295 L22.25822 4.13869 L22.18944 4.23688 L22.98038 4.83752 L23.05651 4.74491 L23.32766 4.50454 L23.63653 4.29611 L23.97112 4.11072 L24.32719 3.94582 L24.70221 3.80033 L25.21183 4.28188 L25.08779 4.66454 L24.94331 5.02936 L24.77715 5.37391 L24.58653 5.69408 L24.36188 5.97840 L24.27373 6.05964 L24.93020 6.83062 L25.02446 6.75654 L25.34095 6.58009 L25.68741 6.44295 L26.05404 6.33384 L26.43724 6.24936 L26.83477 6.18790 L27.22893 6.76777 L27.02551 7.11480 L26.80596 7.44004 L26.56961 7.74080 L26.31460 8.01249 L26.03408 8.24186 L25.93052 8.30225 L26.40762 9.19999 L26.51562 9.14795 L26.86268 9.04378 L27.23055 8.98446 L27.61207 8.95685 L28.00446 8.95686 L28.40591 8.98244 L28.66596 9.63358 L28.39259 9.92867 L28.10817 10.19900 L27.81259 10.44181 L27.50507 10.65223 L27.18174 10.81581 L27.06760 10.85249 L27.34360 11.84629 L27.46031 11.81886 L27.82169 11.79229 L28.19367 11.81399 L28.57213 11.86961 L28.95522 11.95456 L29.34161 12.06642 L29.45457 12.75841 L29.12380 12.98733 L28.78761 13.18969 L28.44649 13.36278 L28.10071 13.50164 L27.74964 13.59137 L27.63027 13.60247 L27.68421 14.60256 L27.80408 14.60076 L28.16277 14.65220 L28.52147 14.75307 L28.87924 14.88845 L29.23524 15.05348 L29.58871 15.24550 z M24.51739 15.10097 L24.30910 13.92033 L23.39311 13.15200 L22.19512 13.15200 L21.27913 13.92033 L21.07084 15.10097 L21.67003 16.13754 L22.79412 16.54630 L23.91821 16.13754 z M16.54412 22.79630 L16.13536 21.67221 L15.09879 21.07302 L13.91815 21.28131 L13.14982 22.19730 L13.14982 23.39529 L13.91815 24.31128 L15.09879 24.51957 L16.13536 23.92038 z M20.54412 14.79630 L20.10854 12.60097 L18.85706 10.72751 L16.98944 9.48188 L14.79412 9.04630 L12.59880 9.48188 L10.72534 10.73335 L9.47970 12.60097 L9.04412 14.79630 L9.47970 16.99162 L10.72534 18.85924 L12.59880 20.11072 L14.79412 20.54630 L16.98944 20.11072 L18.86290 18.85924 L20.10854 16.99162 z M16.43841 7.39529 L16.43841 6.19730 L15.67009 5.28131 L14.48944 5.07302 L13.45288 5.67221 L13.04412 6.79630 L13.45288 7.92038 L14.48944 8.51957 L15.67009 8.31128 z M8.51739 15.10097 L8.30910 13.92033 L7.39311 13.15200 L6.19512 13.15200 L5.27913 13.92033 L5.07084 15.10097 L5.67003 16.13754 L6.79412 16.54630 L7.91821 16.13754 z"/>
</svg>