<?xml version="1.0" encoding="UTF-8"?>
<!-- Generated by jsxcad -->
<!DOCTYPE svg PUBLIC "-//W3C//DTD SVG 1.1 Tiny//EN" "http://www.w3.org/Graphics/SVG/1.1/DTD/svg11-tiny.dtd">
<svg baseProfile="tiny" height="33.542652714171595mm" width="38.98887491226199mm" viewBox="0 0 38.98887491226199 33.542652714171595" version="1.1" stroke="black" stroke-width=".1" fill="none" xmlns="http://www.w3.org/2000/svg">
<path fill="#000000" stroke="#000000" d="M30.19841 33.93989 L30.74303 34.33558 L30.93917 34.47809 L31.1615 34.63962 L26.00222 38.38805 L19.49444 39.77133 L12.98665 38.38805 L7.60412 34.47742 L4.27753 28.7156 L4.115 27.1692 L4.62339 27.1692 L4.84835 27.1692 L4.89944 27.1692 L5.91419 29.27635 L7.76697 33.12367 L11.81599 36.35266 L12.98618 37.28586 L14.88583 37.71944 L18.36112 38.51266 L19.49444 38.77133 L24.84795 37.54942 L26.00269 37.28586 L29.52085 34.48022 z"/>
<path fill="#000000" stroke="#000000" d="M30.19840834967154 33.93989227148243 L31.161500352593006 34.639619514697316 L31.161500352593006 34.639619514697316 L31.161500352593006 34.639619514697316 L30.939171392805275 34.47808808296785 L30.743028558743905 34.33558198371898 L30.19840834967154 33.93989227148243 L30.19840834967154 33.93989227148243 L30.19840834967154 33.93989227148243 z"/>
<path fill="#000000" stroke="#000000" d="M30.51478 12.62156 L33.35084 15.77133 L34.84617 20.37345 L34.41062 20.37345 L34.19897 20.37345 L34.08943 20.37345 L32.47447 17.01995 L31.22191 14.41898 L30.76024 14.05081 L29.52157 13.063 L30.05344 12.82661 L30.16116 12.77873 z"/>
<path fill="#000000" stroke="#000000" d="M9.04902 12.43653 L9.10475 12.53334 L9.42779 13.09452 L8.22864 14.05081 L7.76697 14.41898 L6.51441 17.01995 L4.95103 20.26633 L4.82887 20.17758 L4.73199 20.10719 L4.32524 19.81167 L5.63803 15.77133 L8.88978 12.15989 z"/>
<path fill="#000000" stroke="#000000" d="M9.42778781350566 13.094517258222503 L9.42778781350566 13.094517258222503 L7.766967619246725 14.418977014629476 L7.766967619246725 14.418977014629476 L8.228637864378673 14.050807322015253 L9.42778781350566 13.094517258222503 L9.42778781350566 13.094517258222503 L9.42778781350566 13.094517258222503 z"/>
<path fill="#000000" stroke="#000000" d="M12.986648871338053 38.38805155347011 L12.986648871338053 38.38805155347011 L7.604121915238874 34.47741736389947 L7.604121915238874 34.47741736389947 z"/>
<path fill="#000000" stroke="#000000" d="M30.01446 32.80625 L29.95106 32.76018 L31.08931 29.25701 L31.11352 29.18247 L34.29097 29.18247 L34.44179 29.18247 L34.71134 28.7156 L35.40679 22.09887 L33.35084 15.77133 L28.899 10.82705 L22.82102 8.12096 L16.16785 8.12096 L10.08987 10.82705 L5.63803 15.77133 L3.58209 22.09887 L4.27753 28.7156 L7.60412 34.47742 L12.98665 38.38805 L19.49444 39.77133 L26.00222 38.38805 L31.38475 34.47742 L31.65954 34.00147 L30.62724 33.25146 z"/>
<path fill="#000000" stroke="#000000" d="M22.82102 8.12096434231529 L22.82102 8.12096434231529 L16.16785 8.12096434231529 L16.16785 8.12096434231529 z"/>
<path fill="#000000" stroke="#000000" d="M19.494439149181847 39.77132599721661 L26.002220818607718 38.38805385124526 L26.002220818607718 38.38805385124526 L19.494439149181847 39.77132599721661 z"/>
<path fill="#000000" stroke="#000000" d="M4.2775328054601 28.715598380266588 L4.2775328054601 28.715598380266588 L7.604121958626232 34.47741886918643 L7.604121958626232 34.47741886918643 z"/>
<path fill="#000000" stroke="#000000" d="M12.986649393736094 38.38805285224649 L19.49444063088898 39.771327031901656 L19.49444063088898 39.771327031901656 L12.986649393736094 38.38805285224649 z"/>
<path fill="#000000" stroke="#000000" d="M24.25057 8.75744 L24.11596 8.99024 L23.91565 9.33667 L23.68898 9.7287 L19.62313 8.8007 L19.49444 8.77133 L15.8783 9.59669 L15.24213 9.74189 L15.24321 9.73168 L15.37714 8.47301 L16.16785 8.12096 L22.82102 8.12096 z"/>
<path fill="#000000" stroke="#000000" d="M15.24212835044364 9.74188982448663 L15.37713763030605 8.473009747863742 L15.37713763030605 8.473009747863742 L15.37713763030605 8.473009747863742 L15.37713763030605 8.473009747863742 L15.243214626925486 9.731680492306475 L15.24212835044364 9.74188982448663 L15.24212835044364 9.74188982448663 L15.24212835044364 9.74188982448663 z"/>
<path fill="#000000" stroke="#000000" d="M8.889777021135227 12.159891714761006 L9.427789049298909 13.094520547263901 L9.427789049298909 13.094520547263901 L9.427789049298909 13.094520547263901 L9.427789049298909 13.094520547263901 L9.427789049298909 13.094520547263901 L9.104749779077846 12.533340127172169 L9.049021322387667 12.436529238777526 L8.889777021135227 12.159891714761006 L8.889777021135227 12.159891714761006 L8.889777021135227 12.159891714761006 z"/>
<path fill="#000000" stroke="#000000" d="M4.951029211575104 20.266331085173857 L4.32524064418715 19.81166911335238 L4.32524064418715 19.81166911335238 L4.32524064418715 19.81166911335238 L4.32524064418715 19.81166911335238 L4.32524064418715 19.81166911335238 L4.7319900973699065 20.10718986598181 L4.828871317313157 20.17757818687384 L4.951029211575104 20.266331085173857 L4.951029211575104 20.266331085173857 L4.951029211575104 20.266331085173857 L4.951029211575104 20.266331085173857 L4.951029211575104 20.266331085173857 z"/>
<path fill="#000000" stroke="#000000" d="M12.98618087464761 37.285858903226455 L12.98618087464761 37.285858903226455 L11.81598857268449 36.35266178979724 L7.7669662961859345 33.12367464443646 L7.7669662961859345 33.12367464443646 z"/>
<path fill="#000000" stroke="#000000" d="M12.986180204319746 37.285859104816694 L12.986180204319746 37.285859104816694 L19.494440664339503 38.771327089338456 L19.494440664339503 38.771327089338456 L18.36112129243991 38.51265433745076 L14.885829614768761 37.71944168780832 z"/>
<path fill="#000000" stroke="#000000" d="M4.115 27.16919785137901 L4.89944 27.16919785137901 L4.89944 27.16919785137901 L4.89944 27.16919785137901 L4.89944 27.16919785137901 L4.89944 27.16919785137901 L4.84835 27.16919785137901 L4.62339 27.16919785137901 L4.115 27.16919785137901 L4.115 27.16919785137901 L4.115 27.16919785137901 z"/>
<path fill="#000000" stroke="#000000" d="M4.899441683883136 27.169199189084715 L4.899441683883136 27.169199189084715 L4.899441683883136 27.169199189084715 L4.899441683883136 27.169199189084715 L7.766964605187988 33.12367259800422 L7.766964605187988 33.12367259800422 L5.914191551910291 29.27634925263948 L4.899441683883136 27.169199189084715 z"/>
<path fill="#000000" stroke="#000000" d="M4.95102971468068 20.266329862597473 L4.95102971468068 20.266329862597473 L4.95102971468068 20.266329862597473 L4.95102971468068 20.266329862597473 L4.95102971468068 20.266329862597473 L6.5144048646693165 17.019947526955377 L7.766965666200313 14.418977912952315 L7.766965666200313 14.418977912952315 L4.95102971468068 20.266329862597473 z"/>
<path fill="#000000" stroke="#000000" d="M24.25056725825215 8.757438414707334 L23.688979122255766 9.728699492483782 L23.688979122255766 9.728699492483782 L23.688979122255766 9.728699492483782 L23.688979122255766 9.728699492483782 L23.688979122255766 9.728699492483782 L23.915651937477723 9.336671120259556 L24.11596014073197 8.990240081371946 L24.25056725825215 8.757438414707334 L24.25056725825215 8.757438414707334 L24.25056725825215 8.757438414707334 z"/>
<path fill="#000000" stroke="#000000" d="M33.50949 28.37345 L33.69895 27.98005 L34.03785 27.27632 L34.23219 27.41752 L34.8041 27.83304 L34.7473 28.37345 L34.58505 28.37345 L34.24042 28.37345 z"/>
<path fill="#000000" stroke="#000000" d="M34.037847739989566 27.27632311063774 L34.037847739989566 27.27632311063774 L34.80410098875335 27.83303863909765 L34.80410098875335 27.83303863909765 L34.80410098875335 27.83303863909765 L34.80410098875335 27.83303863909765 L34.232189516688706 27.417520665220973 L34.037847739989566 27.27632311063774 L34.037847739989566 27.27632311063774 z"/>
<path fill="#000000" stroke="#000000" d="M33.509495416032934 28.373452608223683 L33.509495416032934 28.373452608223683 L34.03784721638607 27.27631865948234 L34.03784721638607 27.27631865948234 L34.03784721638607 27.27631865948234 L34.03784721638607 27.27631865948234 L33.698948461427044 27.9800492590624 L33.509495416032934 28.373452608223683 L33.509495416032934 28.373452608223683 L33.509495416032934 28.373452608223683 L33.509495416032934 28.373452608223683 L33.509495416032934 28.373452608223683 L33.509495416032934 28.373452608223683 z"/>
<path fill="#000000" stroke="#000000" d="M15.24212952017747 9.74188789776015 L15.24212952017747 9.74188789776015 L15.24212952017747 9.74188789776015 L15.878299161880431 9.596686327958263 L19.494439083738264 8.771325985595055 L19.494439083738264 8.771325985595055 L15.24212952017747 9.74188789776015 z"/>
<path fill="#000000" stroke="#000000" d="M23.68897927890087 9.728703159341691 L23.68897927890087 9.728703159341691 L23.68897927890087 9.728703159341691 L23.68897927890087 9.728703159341691 L19.494440664339503 8.771327089338458 L19.494440664339503 8.771327089338458 L19.623130088832646 8.800699610798748 L23.68897927890087 9.728703159341691 z"/>
<path fill="#000000" stroke="#000000" d="M34.08943124260834 20.37344940159143 L34.08943124260834 20.37344940159143 L34.08943124260834 20.37344940159143 L31.221910203854115 14.418979901829042 L31.221910203854115 14.418979901829042 L32.474471005385105 17.019949515832103 L34.08943124260834 20.37344940159143 L34.08943124260834 20.37344940159143 z"/>
<path fill="#000000" stroke="#000000" d="M19.494439083738264 38.771325985595055 L19.494439083738264 38.771325985595055 L26.002690038913688 37.285860170492 L26.002690038913688 37.285860170492 L24.84795044470021 37.54942194835891 z"/>
<path fill="#000000" stroke="#000000" d="M29.521568329372986 13.063002094900252 L29.521568329372986 13.063002094900252 L30.760240157816703 14.050809802104085 L31.22191040294865 14.418979494718311 L31.22191040294865 14.418979494718311 L29.521568329372986 13.063002094900252 L29.521568329372986 13.063002094900252 z"/>
<path fill="#000000" stroke="#000000" d="M29.521570682273758 13.063001535058792 L30.51477952946437 12.621558941334264 L30.51477952946437 12.621558941334264 L30.51477952946437 12.621558941334264 L30.51477952946437 12.621558941334264 L30.161159639879603 12.77872918975929 L30.053438652088435 12.826606967311925 L29.521570682273758 13.063001535058792 L29.521570682273758 13.063001535058792 L29.521570682273758 13.063001535058792 z"/>
<path fill="#000000" stroke="#000000" d="M34.7473 28.373454862792585 L33.50949 28.373454862792585 L33.50949 28.373454862792585 L33.50949 28.373454862792585 L33.50949 28.373454862792585 L33.50949 28.373454862792585 L33.50949 28.373454862792585 L33.50949 28.373454862792585 L33.50949 28.373454862792585 L34.24042 28.373454862792585 L34.58505 28.373454862792585 L34.7473 28.373454862792585 L34.7473 28.373454862792585 L34.7473 28.373454862792585 L34.7473 28.373454862792585 L34.7473 28.373454862792585 L34.7473 28.373454862792585 L34.7473 28.373454862792585 z"/>
<path fill="#000000" stroke="#000000" d="M34.84617 20.373454862792585 L34.08943 20.373454862792585 L34.08943 20.373454862792585 L34.08943 20.373454862792585 L34.08943 20.373454862792585 L34.08943 20.373454862792585 L34.19897 20.373454862792585 L34.41062 20.373454862792585 L34.84617 20.373454862792585 L34.84617 20.373454862792585 L34.84617 20.373454862792585 L34.84617 20.373454862792585 z"/>
<path fill="#000000" stroke="#000000" d="M0 22.47346 L3.60734 19.85257 L3.99444 19.57133 L4.25043 19.75731 L4.82887 20.17758 L7.82718 22.35597 L7.98887 22.47346 L7.82718 22.97111 L6.63191 26.64975 L6.46314 27.1692 L1.52574 27.1692 z"/>
<path fill="#000000" stroke="#000000" d="M6.463135280954391 27.16919846668904 L6.631913915783196 26.649751272315164 L7.827177280086032 22.971109116246325 L7.988872975436874 22.473460966778102 L7.988872975436874 22.473460966778102 L6.463135280954391 27.16919846668904 z"/>
<path fill="#000000" stroke="#000000" d="M7.988874072006969 22.473454395362783 L7.988874072006969 22.473454395362783 L7.8271767736331315 22.355974440713375 L4.828871317313157 20.17757818687384 L4.250427145357482 19.75731392907866 L3.994440762723753 19.57132895020073 L3.994440762723753 19.57132895020073 z"/>
<path fill="#000000" stroke="#000000" d="M3.6073396623558924 19.852569535272718 L-0.00000237486236776208 22.473456731282113 L-0.00000237486236776208 22.473456731282113 L3.9944374795061774 19.571326530837595 L3.9944374795061774 19.571326530837595 z"/>
<path fill="#000000" stroke="#000000" d="M1.5257401171434017 27.169199961937796 L1.5257401171434017 27.169199961937796 L0.0000014677457855354132 22.473459523100455 L0.0000014677457855354132 22.473459523100455 z"/>
<path fill="#000000" stroke="#000000" d="M1.52574 27.16919785137901 L1.52574 27.16919785137901 L6.46314 27.16919785137901 L6.46314 27.16919785137901 z"/>
<path fill="#000000" stroke="#000000" d="M1.52574 27.1692 L6.46314 27.1692 L7.98887 22.47346 L3.99444 19.57133 L0 22.47346 z"/>
<path fill="#000000" stroke="#000000" d="M34.99444 27.97133 L32.62445 26.24943 L32.0164 25.80765 L31 25.0692 L31.43073 23.74355 L32.52574 20.37345 L34.19897 20.37345 L35.27793 20.37345 L37.46314 20.37345 L38.98887 25.0692 z"/>
<path fill="#000000" stroke="#000000" d="M37.46314 20.373454862792585 L35.27793 20.373454862792585 L34.19897 20.373454862792585 L32.52574 20.373454862792585 L32.52574 20.373454862792585 L37.46314 20.373454862792585 z"/>
<path fill="#000000" stroke="#000000" d="M32.525740914818456 20.373450297242552 L32.525740914818456 20.373450297242552 L31.430729164951682 23.743549728676335 L30.999999326494436 25.069199781164762 L30.999999326494436 25.069199781164762 z"/>
<path fill="#000000" stroke="#000000" d="M32.624450178470816 26.249429754355972 L34.994440944123376 27.971328700525536 L34.994440944123376 27.971328700525536 L31.000001089754836 25.069198500081022 L31.000001089754836 25.069198500081022 L32.016397396272296 25.807653583724008 z"/>
<path fill="#000000" stroke="#000000" d="M37.46314 20.37345 L32.52574 20.37345 L31 25.0692 L34.99444 27.97133 L38.98887 25.0692 z"/>
<path fill="#000000" stroke="#000000" d="M34.99443729810654 27.971326281162405 L38.988870607389764 25.069200836000356 L38.988870607389764 25.069200836000356 L34.99443729810654 27.971326281162405 z"/>
<path fill="#000000" stroke="#000000" d="M38.98887511668822 25.069198337487112 L37.46313448327933 20.37345179249131 L37.46313448327933 20.37345179249131 L38.98887511668822 25.069198337487112 z"/>
<path fill="#000000" stroke="#000000" d="M7.82718 10.31395 L7.58522 9.89364 L7.82718 9.62561 L10.89369 6.22867 L15.40165 8.24267 L14.87925 13.15236 L10.04844 14.17271 z"/>
<path fill="#000000" stroke="#000000" d="M15.40164785172274 8.242674808511824 L15.40164785172274 8.242674808511824 L10.893688249381203 6.228673918428659 L10.893688249381203 6.228673918428659 z"/>
<path fill="#000000" stroke="#000000" d="M10.048439496727141 14.172707617273103 L10.048439496727141 14.172707617273103 L14.879249482866397 13.152357551649915 L14.879249482866397 13.152357551649915 z"/>
<path fill="#000000" stroke="#000000" d="M14.879253106754426 13.152360330559747 L14.879253106754426 13.152360330559747 L15.401645905651499 8.2426695643599 L15.401645905651499 8.2426695643599 z"/>
<path fill="#000000" stroke="#000000" d="M7.585220519785289 9.893640469224584 L7.585220519785289 9.893640469224584 L10.893690507601043 6.228670458225529 L10.893690507601043 6.228670458225529 L7.827179477478358 9.625609528305233 z"/>
<path fill="#000000" stroke="#000000" d="M7.585224760957663 9.89363725939068 L7.585224760957663 9.89363725939068 L7.827175955622537 10.313952328115338 L10.048440498874873 14.172709712826446 L10.048440498874873 14.172709712826446 z"/>
<path fill="#000000" stroke="#000000" d="M7.58522 9.89364 L10.04844 14.17271 L14.87925 13.15236 L15.40165 8.24267 L10.89369 6.22867 z"/>
<path fill="#000000" stroke="#000000" d="M23.07577 10.78924 L25.5472 6.51492 L29.01205 7.25371 L30.37605 7.54455 L30.889 12.45523 L26.37718 14.46056 L24.21246 12.0533 z"/>
<path fill="#000000" stroke="#000000" d="M23.075765707896373 10.789243859649176 L23.075765707896373 10.789243859649176 L24.21246045728422 12.053299588789827 L26.37717743239233 14.460562308906233 L26.37717743239233 14.460562308906233 z"/>
<path fill="#000000" stroke="#000000" d="M25.547200730386933 6.514916574595828 L25.547200730386933 6.514916574595828 L30.376048941004573 7.544554966528248 L30.376048941004573 7.544554966528248 L29.01204913330818 7.253714064653429 z"/>
<path fill="#000000" stroke="#000000" d="M30.888998587944645 12.455230147498012 L30.888998587944645 12.455230147498012 L30.37604736452945 7.54455027529138 L30.37604736452945 7.54455027529138 z"/>
<path fill="#000000" stroke="#000000" d="M26.37718020426167 14.460560459571647 L26.37718020426167 14.460560459571647 L30.889000942027014 12.455232119481854 L30.889000942027014 12.455232119481854 z"/>
<path fill="#000000" stroke="#000000" d="M25.547202177684376 6.514921259148275 L25.547202177684376 6.514921259148275 L23.075769372070685 10.78923963692805 L23.075769372070685 10.78923963692805 z"/>
<path fill="#000000" stroke="#000000" d="M25.5472 6.51492 L23.07577 10.78924 L26.37718 14.46056 L30.889 12.45523 L30.37605 7.54455 z"/>
<path fill="#000000" stroke="#000000" d="M30.87711 28.62874 L31.1617 28.43859 L31.20522 28.37345 L35.46314 28.37345 L36.98887 33.0692 L32.99444 35.97133 L29 33.0692 L30.32235 28.99942 L30.65657 28.77611 z"/>
<path fill="#000000" stroke="#000000" d="M31.16169913279455 28.43858870213508 L31.16169913279455 28.43858870213508 L30.877112330538147 28.628743487897488 L30.656567752161443 28.776106635871223 L30.32235173497047 28.999422596567303 L30.32235173497047 28.999422596567303 z"/>
<path fill="#000000" stroke="#000000" d="M30.525740914818456 28.373450297242552 L30.32235091972875 28.999420298838004 L30.32235091972875 28.999420298838004 L28.999999326494436 33.06919978116476 L28.999999326494436 33.06919978116476 L30.525740914818456 28.373450297242552 z"/>
<path fill="#000000" stroke="#000000" d="M31.20522 28.373454862792585 L31.20522 28.373454862792585 L31.20522 28.373454862792585 L30.52574 28.373454862792585 L30.52574 28.373454862792585 L35.46314 28.373454862792585 L35.46314 28.373454862792585 L31.20522 28.373454862792585 z"/>
<path fill="#000000" stroke="#000000" d="M31.161698954258316 28.438589301257878 L31.20522251342559 28.373451679416966 L31.20522251342559 28.373451679416966 L31.20522251342559 28.373451679416966 L31.20522251342559 28.373451679416966 L31.161698954258316 28.438589301257878 z"/>
<path fill="#000000" stroke="#000000" d="M36.98887 33.0692 L35.46314 28.37345 L30.52574 28.37345 L29 33.0692 L32.99444 35.97133 z"/>
<path fill="#000000" stroke="#000000" d="M31.11352 29.18247 L31.63926 29.18247 L34.79698 29.18247 L34.87535 29.18247 L35.87536 32.26018 L36.0136 32.68565 L36.03782 32.76018 L33.05784 34.92526 L32.99444 34.97133 L32.56911 34.66231 L30.01446 32.80625 L29.95106 32.76018 L30.95106 29.68247 L31.08931 29.25701 z"/>
<path fill="#000000" stroke="#000000" d="M29.000001089754836 33.06919850008102 L32.994440944123376 35.97132870052554 L32.994440944123376 35.97132870052554 L29.000001089754836 33.06919850008102 z"/>
<path fill="#000000" stroke="#000000" d="M32.99443729810654 35.971326281162405 L36.98887060738976 33.069200836000356 L36.98887060738976 33.069200836000356 L32.99443729810654 35.971326281162405 z"/>
<path fill="#000000" stroke="#000000" d="M36.98887511668822 33.069198337487116 L35.46313448327933 28.37345179249131 L35.46313448327933 28.37345179249131 L36.98887511668822 33.069198337487116 z"/>
<path fill="#000000" stroke="#000000" d="M31.20522 28.37345 L31.1617 28.43859 L30.32235 28.99942 L30.52574 28.37345 z"/>
<path fill="#000000" stroke="#000000" d="M29.95105850243676 32.76018206121886 L29.95105850243676 32.76018206121886 L30.01446192697263 32.806247347749824 L32.569110996275484 34.6623086287445 L32.99444083074853 34.97132885657278 L32.99444083074853 34.97132885657278 z"/>
<path fill="#000000" stroke="#000000" d="M29.951057257081175 32.7601791087717 L29.951057257081175 32.7601791087717 L31.113524829683353 29.182471569259143 L31.113524829683353 29.182471569259143 L31.089306225448276 29.25700877357388 L30.951064976461364 29.68247161695021 z"/>
<path fill="#000000" stroke="#000000" d="M31.11352 29.18247204418907 L31.11352 29.18247204418907 L34.87535 29.18247204418907 L34.87535 29.18247204418907 L34.79698 29.18247204418907 L31.63926 29.18247204418907 z"/>
<path fill="#000000" stroke="#000000" d="M34.87534961349941 29.18247012558164 L34.87534961349941 29.18247012558164 L36.0378181410165 32.760180604020306 L36.0378181410165 32.760180604020306 L36.01360152079262 32.68564950586455 L35.87535828779452 32.260180556329246 z"/>
<path fill="#000000" stroke="#000000" d="M36.03781973979288 32.760179641855636 L36.03781973979288 32.760179641855636 L32.9944374114811 34.971326437209555 L32.9944374114811 34.971326437209555 L33.05784083601697 34.925261150678594 z"/>
<path fill="#000000" stroke="#000000" d="M34.87535 29.18247 L31.11352 29.18247 L29.95106 32.76018 L32.99444 34.97133 L36.03782 32.76018 z"/>
</svg>